<svg width="59" height="59" viewBox="0 0 59 59" fill="none" xmlns="http://www.w3.org/2000/svg">
<path fill-rule="evenodd" clip-rule="evenodd" d="M26.5518 12.981C28.2364 14.8484 27.7023 16.964 26.2127 18.9713C25.8596 19.4473 25.4525 19.9162 24.9609 20.4329C24.7249 20.6809 24.5409 20.8674 24.156 21.2527C23.2818 22.1277 22.547 22.8629 21.9515 23.4584C21.6627 23.7472 23.6344 27.6873 27.461 31.5176C31.2856 35.3459 35.2255 37.319 35.5156 37.0287L37.7186 34.8245C38.9317 33.6102 39.5742 33.0243 40.457 32.4451C42.2923 31.2411 44.2941 30.9139 45.9824 32.4236C51.4949 36.3667 54.6144 38.7864 56.1426 40.3743C59.1234 43.4715 58.7328 48.239 56.1596 50.9588C55.2672 51.9019 54.1358 53.034 52.7996 54.3222C44.7164 62.4098 27.6571 57.488 14.583 44.401C1.50593 31.3111 -3.41329 14.2502 4.65296 6.17963C6.10108 4.70875 6.57854 4.23153 7.98889 2.84186C10.6147 0.254558 15.6022 -0.150561 18.634 2.84442C20.2288 4.4198 22.7713 7.69108 26.5518 12.981ZM41.7826 38.89L39.5792 41.0946C35.8339 44.8419 29.4556 41.6477 23.3965 35.5826C17.3333 29.5134 14.1426 23.1375 17.8892 19.3913C18.4839 18.7966 19.218 18.062 20.0915 17.1877C20.4439 16.835 20.6051 16.6716 20.7986 16.4682C21.0622 16.1911 21.2788 15.9478 21.4523 15.7325C18.1018 11.0653 15.8243 8.14908 14.5965 6.9362C13.9624 6.30982 12.5425 6.42515 12.0213 6.93876C10.631 8.30859 10.1741 8.76531 8.73181 10.2301C3.54441 15.4204 7.51554 29.1932 18.6475 40.3361C29.776 51.4755 43.5466 55.4485 48.7735 50.2194C50.089 48.9506 51.161 47.878 51.9861 47.0059C52.5823 46.3757 52.6889 45.0754 52.003 44.3628C50.8607 43.1758 48.064 40.9953 43.235 37.5274C42.883 37.8107 42.4503 38.2217 41.7826 38.89Z" fill="#444444"/>
</svg>
