<svg width="46" height="35" viewBox="0 0 46 35" fill="none" xmlns="http://www.w3.org/2000/svg">
<path d="M45.4962 7.44C45.4962 7.44 45.048 4.05975 43.6703 2.57146C41.922 0.620598 39.964 0.609106 39.0661 0.49849C32.6346 1.71253e-07 22.988 0 22.988 0H22.9665C22.9665 0 13.3199 1.71253e-07 6.88979 0.49849C5.99194 0.609106 4.03533 0.620598 2.28558 2.57146C0.909349 4.05975 0.459703 7.44 0.459703 7.44C0.459703 7.44 0 11.4064 0 15.3727V19.0906C0 23.0598 0.459703 27.0248 0.459703 27.0248C0.459703 27.0248 0.907913 30.4036 2.28558 31.889C4.03533 33.8399 6.32953 33.781 7.35237 33.985C11.0286 34.3613 22.9779 34.4777 22.9779 34.4777C22.9779 34.4777 32.6346 34.4605 39.0661 33.9677C39.964 33.8528 41.922 33.8413 43.6703 31.8904C45.0465 30.405 45.4962 27.0262 45.4962 27.0262C45.4962 27.0262 45.9559 23.0598 45.9559 19.092V15.3742C45.9559 11.4064 45.4962 7.44 45.4962 7.44Z" fill="#444444"/>
<path d="M17.2388 8.61963V25.8585L31.6045 17.2391L17.2388 8.61963Z" fill="white"/>
</svg>
