<svg width="57" height="57" viewBox="0 0 57 57" fill="none" xmlns="http://www.w3.org/2000/svg">
<path d="M28.5 55.8596C43.6105 55.8596 55.86 43.6102 55.86 28.4996C55.86 13.3891 43.6105 1.13965 28.5 1.13965C13.3895 1.13965 1.14001 13.3891 1.14001 28.4996C1.14001 43.6102 13.3895 55.8596 28.5 55.8596Z" stroke="#444444" stroke-width="2" stroke-miterlimit="10" stroke-linecap="round"/>
<path d="M28.4999 55.8596C36.0552 55.8596 42.1799 43.6102 42.1799 28.4996C42.1799 13.3891 36.0552 1.13965 28.4999 1.13965C20.9447 1.13965 14.8199 13.3891 14.8199 28.4996C14.8199 43.6102 20.9447 55.8596 28.4999 55.8596Z" stroke="#444444" stroke-width="2" stroke-miterlimit="10" stroke-linecap="round"/>
<path d="M7.2561 46.0994C12.2732 43.0111 19.9261 41.04 28.5 41.04C36.9565 41.04 44.5159 42.9575 49.5341 45.9705" stroke="#444444" stroke-width="2" stroke-miterlimit="10"/>
<path d="M49.7439 10.9019C44.7267 13.989 37.0739 15.96 28.5 15.96C20.0446 15.96 12.4841 14.0426 7.46582 11.0295" stroke="#444444" stroke-width="2" stroke-miterlimit="10"/>
<path d="M1.14001 28.5H55.86" stroke="#444444" stroke-width="2" stroke-miterlimit="10"/>
<path d="M28.5 1.13965V55.8596" stroke="#444444" stroke-width="2" stroke-miterlimit="10"/>
</svg>
