<svg width="46" height="46" viewBox="0 0 46 46" fill="none" xmlns="http://www.w3.org/2000/svg">
<path d="M22.7134 10.8984C16.3024 10.8984 10.9904 16.1188 10.9904 22.6215C10.9904 29.1241 16.2108 34.3445 22.7134 34.3445C29.216 34.3445 34.4364 29.0325 34.4364 22.6215C34.4364 16.2104 29.1244 10.8984 22.7134 10.8984ZM22.7134 30.1315C18.592 30.1315 15.2033 26.7428 15.2033 22.6215C15.2033 18.5001 18.592 15.1114 22.7134 15.1114C26.8348 15.1114 30.2235 18.5001 30.2235 22.6215C30.2235 26.7428 26.8348 30.1315 22.7134 30.1315Z" fill="#444444"/>
<path d="M34.8943 13.2803C36.3612 13.2803 37.5503 12.0911 37.5503 10.6243C37.5503 9.15739 36.3612 7.96826 34.8943 7.96826C33.4275 7.96826 32.2383 9.15739 32.2383 10.6243C32.2383 12.0911 33.4275 13.2803 34.8943 13.2803Z" fill="#444444"/>
<path d="M41.7633 3.75503C39.3821 1.28221 35.9934 0 32.1467 0H13.28C5.312 0 0 5.312 0 13.28V32.0552C0 35.9934 1.28221 39.3821 3.84662 41.8549C6.31945 44.2361 9.61655 45.4267 13.3716 45.4267H32.0552C35.9934 45.4267 39.2905 44.1445 41.6717 41.8549C44.1445 39.4736 45.4267 36.085 45.4267 32.1468V13.28C45.4267 9.43338 44.1445 6.13627 41.7633 3.75503ZM41.397 32.1468C41.397 34.9859 40.3895 37.2756 38.741 38.8325C37.0924 40.3895 34.8028 41.2138 32.0552 41.2138H13.3716C10.624 41.2138 8.33434 40.3895 6.68579 38.8325C5.03724 37.184 4.21296 34.8943 4.21296 32.0552V13.28C4.21296 10.5324 5.03724 8.24276 6.68579 6.59421C8.24276 5.03724 10.624 4.21296 13.3716 4.21296H32.2383C34.9859 4.21296 37.2756 5.03724 38.9241 6.68579C40.4811 8.33434 41.397 10.624 41.397 13.28V32.1468Z" fill="#444444"/>
</svg>
