<svg width="46" height="46" viewBox="0 0 46 46" fill="none" xmlns="http://www.w3.org/2000/svg">
<path d="M22.9851 45.9703C10.2927 45.9703 0 35.6775 0 22.9851C0 10.2927 10.2927 0 22.9851 0C35.6775 0 45.9703 10.2927 45.9703 22.9851C45.9703 35.6775 35.6775 45.9703 22.9851 45.9703Z" fill="#444444"/>
<path d="M28.9612 45.97V28.1657H34.9373L35.8337 21.2288H28.9612V16.7972C28.9612 14.7883 29.5174 13.4184 32.3998 13.4184H36.0728V7.21703C35.4384 7.13428 33.2548 6.9458 30.7173 6.9458C25.4215 6.9458 21.7944 10.1775 21.7944 16.1169V21.2334H15.8045V28.1703H21.7944V45.97H28.9612Z" fill="white"/>
</svg>
