<svg width="59" height="59" viewBox="0 0 59 59" fill="none" xmlns="http://www.w3.org/2000/svg">
<path d="M26.5356 26.7889C26.5398 25.8816 26.8393 25.0004 27.3883 24.2795C28.1283 23.3238 28.9723 22.454 29.9046 21.6862C30.7459 20.9603 31.5171 20.1565 32.2082 19.2854C32.6428 18.6736 32.868 17.9367 32.8499 17.1856C32.8603 16.7257 32.7781 16.2684 32.6084 15.841C32.4387 15.4137 32.1848 15.025 31.862 14.6983C31.5393 14.3717 31.1541 14.1137 30.7297 13.9397C30.3053 13.7658 29.8503 13.6794 29.3919 13.6859C28.477 13.6769 27.5927 14.0165 26.9175 14.6361C26.1308 15.3966 25.5572 16.3512 25.2539 17.4043L21.5012 15.7613C21.9785 13.9276 23.0329 12.2976 24.5075 11.1136C25.9625 10.0158 27.7448 9.44413 29.5646 9.49149C30.9488 9.47703 32.3164 9.79566 33.5527 10.4207C34.7311 11.0145 35.7263 11.9188 36.4317 13.0367C37.1469 14.175 37.5176 15.4971 37.4989 16.8426C37.5141 18.0544 37.189 19.2461 36.5607 20.2812C35.7665 21.4991 34.8042 22.5978 33.7026 23.5446C32.8616 24.2606 32.0704 25.0335 31.3346 25.8579C30.9125 26.3429 30.6779 26.9638 30.6736 27.6077C30.6855 28.0023 30.7441 28.3941 30.848 28.7749H27.0116C26.7125 28.1549 26.5501 27.4775 26.5356 26.7889ZM29.0938 38.9818C28.6557 38.9929 28.22 38.9145 27.8132 38.7511C27.4063 38.5878 27.0369 38.343 26.7274 38.0317C26.4126 37.7231 26.1647 37.3526 25.9994 36.9434C25.834 36.5341 25.7548 36.095 25.7666 35.6536C25.7562 35.209 25.836 34.7669 26.0012 34.3541C26.1664 33.9414 26.4135 33.5667 26.7274 33.2528C27.034 32.9361 27.4024 32.6862 27.8095 32.5188C28.2167 32.3514 28.6539 32.2701 29.0938 32.2799C29.5363 32.2704 29.9762 32.3515 30.3865 32.5181C30.7969 32.6847 31.1691 32.9334 31.4806 33.2491C31.792 33.5647 32.0362 33.9406 32.1981 34.354C32.3601 34.7674 32.4365 35.2096 32.4227 35.6536C32.4344 36.0949 32.3553 36.5339 32.1902 36.943C32.0252 37.3522 31.7778 37.7228 31.4636 38.0317C31.1533 38.3429 30.7833 38.5876 30.3759 38.7509C29.9685 38.9142 29.5323 38.9928 29.0938 38.9818Z" fill="#444444"/>
<path d="M2.57041 59C2.19303 58.9997 1.82035 58.9161 1.47879 58.7551C1.03515 58.5498 0.659782 58.2206 0.397555 57.807C0.135329 57.3933 -0.00266967 56.9127 3.91256e-05 56.4225V6.25053C0.00188534 4.59337 0.658737 3.00453 1.82648 1.83274C2.99422 0.660944 4.57748 0.00185262 6.22892 0H52.7712C54.4226 0.00185262 56.0059 0.660944 57.1736 1.83274C58.3414 3.00453 58.9982 4.59337 59 6.25053V41.9756C58.9977 43.6324 58.3407 45.2208 57.173 46.3922C56.0053 47.5636 54.4223 48.2226 52.7712 48.2244H17.9438C16.9004 48.2247 15.8901 48.5926 15.0892 49.2638L4.20785 58.398C3.74914 58.7849 3.16963 58.9979 2.57041 59ZM6.22892 3.49972C5.50217 3.50064 4.80546 3.79073 4.29157 4.3064C3.77769 4.82207 3.48858 5.52127 3.48766 6.25053V54.4381L12.8519 46.5795C14.2806 45.3824 16.0825 44.726 17.9438 44.7247H52.7712C53.4977 44.7242 54.1945 44.4345 54.7084 43.9191C55.2223 43.4037 55.5115 42.7047 55.5124 41.9756V6.25053C55.5115 5.52127 55.2224 4.82207 54.7085 4.3064C54.1946 3.79073 53.4979 3.50064 52.7712 3.49972H6.22892Z" fill="#444444"/>
</svg>
