<svg width="913" height="871" viewBox="0 0 913 871" fill="none" xmlns="http://www.w3.org/2000/svg">
<path d="M883.571 629.879C877.825 643.355 864.441 647.457 853.29 644.189C843.43 641.3 835.32 632.696 835.735 619.774C836.514 595.613 835.877 571.751 835.281 551.444C831.747 429.717 740.233 320.822 628.133 287.973C621.288 285.967 614.335 284.249 607.346 282.817C659.576 319.755 711.186 381.984 734.35 446.804C794.302 614.524 709.865 798.359 542.129 858.282C505.761 871.276 467.915 873.106 429.153 868.737C427.435 868.554 425.838 868.209 424.297 867.757C401.269 861.009 400.055 827.109 425.122 820.008C431.698 818.145 438.073 816.124 444.093 813.975C565.76 770.504 629.975 641.064 616.025 518.007C597.027 579.062 566.9 643.574 512.443 685.625C427.462 751.217 320.138 767.832 224.425 739.784C161.371 721.308 103.315 683.425 60.0946 627.42C33.6358 593.16 13.7139 550.283 1.42748 505.705C-4.33915 484.819 15.7972 470.022 32.5691 474.937C37.6007 476.411 42.3154 479.638 45.9808 485.019C55.3897 498.852 64.8696 511.769 73.5402 522.998C111.503 572.171 164.09 606.457 221.002 623.135C282.491 641.153 349.025 638.599 407.559 611.944C380.412 612.283 352.172 607.871 324.317 599.708C286.512 588.63 249.419 570.673 216.715 548.316C69.6162 447.867 31.8173 247.213 132.289 100.12C156.077 65.3014 190.184 34.4911 228.239 10.0304C235.029 5.67063 242.09 5.00787 248.232 6.80774C263.576 11.3041 273.503 31.0961 260.858 46.7841C251.481 58.4583 242.959 69.9892 235.688 80.6071C162.828 187.307 175.288 321.914 258.924 413.265C238.411 352.667 236.478 290.647 255.832 224.602C305.903 53.7326 489.377 -36.1322 660.292 13.952C698.505 25.1497 735.848 43.5989 769.101 67.1009C792.036 83.3213 773.742 118.79 747.36 111.059C746.975 110.946 746.567 110.827 746.165 110.685C732.157 105.915 718.65 101.785 706.479 98.2182C582.48 61.8821 454.116 112.251 393.103 220.011C444.381 181.754 506.966 163.867 575.77 161.879C610.701 160.843 644.712 165.469 676.85 174.887C808.442 213.448 908.597 332.578 912.759 475.68C914.203 526.186 904.306 581.122 883.571 629.879Z" fill="#EDEDED"/>
</svg>
