<svg width="140" height="146" viewBox="0 0 140 146" fill="none" xmlns="http://www.w3.org/2000/svg">
<path d="M37.1327 140.12C35.0155 139.133 34.433 136.978 35.0131 135.218C35.5259 133.662 36.9402 132.415 38.9974 132.55C42.8438 132.803 46.6502 132.828 49.8896 132.841C69.3084 132.925 87.1495 118.919 92.9807 101.228C93.3368 100.148 93.6475 99.049 93.913 97.9429C87.7484 106.07 77.5565 113.965 67.1028 117.312C40.0544 125.975 11.2053 111.541 2.54698 84.4899C0.669451 78.6248 0.57893 72.5834 1.48131 66.4291C1.51969 66.1563 1.58316 65.9036 1.66333 65.6604C2.86116 62.0263 8.27042 62.013 9.26884 66.0458C9.53081 67.1036 9.81889 68.1305 10.1294 69.1013C16.4107 88.7226 36.6982 99.6447 56.3842 98.0758C46.7548 94.7234 36.6336 89.579 30.2214 80.6767C20.2197 66.7844 18.1423 49.5916 23.1211 34.4868C26.401 24.5362 32.747 15.4851 41.9024 8.89469C47.503 4.86004 54.4423 1.91301 61.6121 0.191891C64.9714 -0.616108 67.2226 2.67172 66.3502 5.31855C66.0884 6.1126 65.549 6.84684 64.672 7.40238C62.4175 8.82835 60.3084 10.2705 58.4728 11.5927C50.4342 17.3814 44.6903 25.5801 41.7299 34.5614C38.5314 44.2653 38.5848 54.8825 42.5217 64.3528C42.612 60.0246 43.4652 55.5473 44.9141 51.1514C46.8807 45.1853 49.9398 39.3692 53.6766 34.2761C70.4673 11.3667 102.647 6.40936 125.555 23.2036C130.978 27.1799 135.707 32.7794 139.403 38.9743C140.061 40.0796 140.13 41.2084 139.81 42.1778C139.012 44.5992 135.805 46.076 133.372 43.9774C131.561 42.4209 129.769 41.0014 128.115 39.7862C111.498 27.6072 89.979 28.8774 74.9755 41.7208C84.7421 38.7739 94.6366 38.7955 105.059 42.231C132.025 51.1193 145.371 80.8376 136.481 107.81C134.493 113.841 131.354 119.694 127.432 124.869C124.725 128.438 119.169 125.334 120.542 121.17C120.562 121.109 120.583 121.045 120.608 120.982C121.442 118.775 122.173 116.644 122.806 114.723C129.256 95.1544 121.911 74.4291 105.061 64.1326C110.886 72.5081 113.404 82.5775 113.355 93.5535C113.334 99.126 112.416 104.522 110.744 109.594C103.899 130.361 84.3809 145.689 61.5524 145.592C53.4955 145.553 44.7929 143.684 37.1327 140.12Z" fill="#EDEDED"/>
</svg>
