<svg width="95" height="100" viewBox="0 0 95 100" fill="none" xmlns="http://www.w3.org/2000/svg">
<path d="M46.5478 99.2805C44.9744 99.4245 43.9004 98.3636 43.6401 97.1378C43.41 96.054 43.8118 94.8438 45.0598 94.2221C47.3935 93.06 49.6263 91.7787 51.5237 90.6833C62.8994 84.12 68.5556 69.8608 65.9391 57.5378C65.7793 56.7853 65.5867 56.0373 65.3651 55.3005C64.5304 62.1488 61.263 70.2323 56.2942 75.7476C43.4385 90.02 21.6659 91.4089 7.39548 78.5503C4.30125 75.7624 2.19122 72.263 0.622929 68.3595C0.552451 68.187 0.503487 68.0177 0.467514 67.8483C-0.0699605 65.3169 3.08633 63.4672 5.04295 65.4838C5.55625 66.0127 6.07423 66.5146 6.58624 66.9762C16.9379 76.3029 32.5117 75.777 43.4808 68.157C36.7125 69.4769 29.0465 69.9173 22.2683 66.8987C11.6935 62.1865 4.6253 52.8475 2.39129 42.3258C0.919582 35.3944 1.54588 27.9446 4.65164 20.9761C6.55049 16.7114 9.60192 12.6265 13.2054 9.17941C14.8933 7.56337 17.3283 8.71803 17.7198 10.5618C17.8372 11.1149 17.772 11.7276 17.4487 12.3509C16.6169 13.9518 15.8755 15.5127 15.2531 16.9103C12.5269 23.0301 11.9623 29.7767 13.2906 36.0329C14.7258 42.7924 18.3723 48.9783 23.8974 53.1716C22.4764 50.6117 21.4504 47.705 20.8003 44.6429C19.9179 40.487 19.725 36.0468 20.1744 31.7983C22.185 12.694 39.3008 -1.16016 58.4056 0.852975C62.9282 1.33003 67.5982 2.99179 71.8673 5.35316C72.6286 5.77478 73.0528 6.41119 73.1961 7.0864C73.5543 8.77315 72.1831 10.7281 70.0468 10.3303C68.4588 10.0373 66.9281 9.81813 65.548 9.67109C51.6906 8.21287 39.549 16.2823 35.1551 28.8961C39.8587 23.8484 45.6478 20.4919 52.9081 18.9504C71.6917 14.9622 89.6099 27.7832 93.5992 46.5717C94.4911 50.7724 94.6501 55.2616 94.1201 59.6209C93.7535 62.6281 89.4503 62.7059 88.8345 59.8058C88.8255 59.7635 88.816 59.7186 88.809 59.6732C88.5451 58.0993 88.2462 56.6056 87.9621 55.2677C85.0679 41.6366 73.7188 32.027 60.3669 31.7477C66.6223 34.6586 71.5224 39.6851 75.2312 46.1155C77.1166 49.3788 78.4174 52.8443 79.1676 56.3773C82.239 70.843 76.0532 86.4463 62.6804 94.1627C57.9593 96.8836 52.2375 98.7546 46.5478 99.2805Z" fill="#EDEDED"/>
</svg>
