<svg width="405" height="402" viewBox="0 0 405 402" fill="none" xmlns="http://www.w3.org/2000/svg">
<path d="M287.632 400.378C281.878 403.497 276.056 401.213 273.063 396.972C270.417 393.223 269.969 387.96 273.704 383.554C280.689 375.319 287.095 366.794 292.528 359.525C325.108 315.959 323.345 252.441 293.255 209.807C291.417 207.204 289.462 204.671 287.415 202.229C295.425 229.661 296.192 265.768 286.288 294.879C260.668 370.208 180.06 411.062 104.733 385.427C88.401 379.87 74.6526 369.996 62.3063 357.699C61.7562 357.158 61.2933 356.594 60.8796 356.007C54.6985 347.25 63.6914 335.053 74.4334 339.532C77.2514 340.707 80.043 341.772 82.7459 342.692C137.385 361.284 195.808 333.841 225.114 286.917C201.507 302.998 173.046 317.197 142.313 316.779C94.3624 316.117 52.2013 292.115 26.5095 255.713C9.58444 231.733 -0.201347 202.352 0.237142 170.753C0.49845 151.418 5.44064 130.883 13.5263 111.876C17.3113 102.967 28.4663 103.384 32.9683 109.763C34.3189 111.677 35.0717 114.115 34.8591 117.016C34.308 124.469 34.0358 131.621 33.9497 137.958C33.5698 165.707 42.4416 192.31 57.7179 213.955C74.2232 237.34 98.2085 254.93 126.09 261.866C116.499 254.443 107.846 245.054 100.369 234.461C90.2209 220.083 82.2332 203.496 77.0033 186.59C53.4485 110.585 95.968 29.8891 171.979 6.34293C189.974 0.770823 210.465 -0.532501 230.573 1.48213C234.159 1.84336 236.814 3.57299 238.462 5.90895C242.581 11.7446 240.555 21.4261 231.774 23.4014C225.25 24.8805 219.065 26.5467 213.572 28.2414C158.442 45.3278 125.406 95.8786 129.287 151.071C138.945 124.173 155.498 101.939 180.617 84.2113C245.601 38.3458 334.751 57.8783 380.629 122.88C390.886 137.413 398.825 154.241 403.929 171.701C407.446 183.747 391.193 191.073 384.111 181.039C384.008 180.893 383.898 180.738 383.797 180.576C380.222 175.016 376.644 169.819 373.377 165.19C340.093 118.031 281.194 99.9916 229.914 120.74C258.48 121.602 285.344 132.73 309.966 151.149C322.473 160.491 333.086 171.557 341.713 183.78C377.035 233.827 378.978 303.326 340.68 354.544C327.154 372.613 308.43 389.082 287.632 400.378Z" fill="#EDEDED"/>
</svg>
