<svg width="62" height="61" viewBox="0 0 62 61" fill="none" xmlns="http://www.w3.org/2000/svg">
<path d="M61.3043 21.0325C61.6826 21.9417 61.2512 22.7779 60.5704 23.1607C59.9684 23.4991 59.1738 23.4851 58.5718 22.8583C57.4466 21.6861 56.2691 20.5961 55.2646 19.6711C49.2448 14.1242 39.7103 13.411 32.866 17.259C32.4481 17.494 32.0389 17.7477 31.6418 18.0165C35.871 17.2396 41.2874 17.6802 45.4924 19.6105C56.3736 24.6042 61.2485 37.2983 56.2527 48.1788C55.1695 50.538 53.4801 52.4439 51.4496 54.1028C51.3601 54.1768 51.2685 54.2374 51.1744 54.2903C49.7685 55.0808 48.0812 53.5471 48.917 52.0081C49.1362 51.6044 49.3384 51.2029 49.5178 50.8125C53.1412 42.92 49.9324 33.753 43.3596 28.6446C45.4034 32.4256 47.0908 36.9041 46.5555 41.4977C45.7187 48.6649 41.4774 54.6063 35.6335 57.8919C31.7838 60.0563 27.2355 61.0691 22.5124 60.5173C19.6223 60.1807 16.6248 59.1251 13.9041 57.6224C12.6288 56.9188 12.8629 55.2555 13.8869 54.6798C14.1941 54.5071 14.5708 54.4319 15.0017 54.5083C16.1087 54.7055 17.1751 54.8563 18.1223 54.9666C22.2699 55.4504 26.3884 54.5317 29.8632 52.5781C33.6175 50.4674 36.6193 47.1479 38.0865 43.0812C36.8279 44.4026 35.2894 45.5535 33.5887 46.5096C31.2805 47.8074 28.6749 48.7478 26.0639 49.2705C14.3251 51.6269 2.90056 44.0211 0.54553 32.2815C-0.0116744 29.5023 0.108482 26.4151 0.719381 23.4364C0.828628 22.9051 1.12835 22.5344 1.50337 22.3235C2.44021 21.7968 3.85818 22.249 4.01875 23.5938C4.13978 24.593 4.29404 25.5444 4.46318 26.3927C6.17255 34.9075 13.2308 40.63 21.5517 40.8982C17.6742 39.0387 14.601 36.219 12.3338 32.1866C6.46837 21.754 10.7635 8.71044 21.1989 2.84343C23.532 1.5317 26.173 0.60235 28.8649 0.106961C30.722 -0.234155 31.5685 2.31134 29.9577 3.21695C29.9342 3.23017 29.9093 3.24418 29.8836 3.2568C28.9963 3.70647 28.1634 4.16204 27.4203 4.57983C19.8494 8.83635 16.2431 17.3748 18.5599 25.3697C19.1283 21.1071 21.2074 17.2574 24.3431 13.8553C25.9338 12.1268 27.7535 10.7085 29.7157 9.6053C37.7501 5.08815 48.1827 5.86655 55.2598 12.387C57.7564 14.6896 59.9335 17.7455 61.3043 21.0325Z" fill="#EDEDED"/>
</svg>
