<svg width="50" height="36" viewBox="0 0 50 36" fill="none" xmlns="http://www.w3.org/2000/svg">
<path d="M45.8054 4.37363H45.6166V4.05974C45.6166 2.98664 45.1908 1.95719 44.4323 1.19644C43.6738 0.435693 42.6443 0.00553141 41.5688 0L4.06879 0C2.98968 0 1.95477 0.427721 1.19172 1.18907C0.428675 1.95042 0 2.98303 0 4.05974L0 26.9115C0 27.4446 0.105242 27.9725 0.309718 28.465C0.514194 28.9576 0.813899 29.4051 1.19172 29.7821C1.56954 30.1591 2.01808 30.4581 2.51173 30.6622C3.00538 30.8662 3.53447 30.9712 4.06879 30.9712H4.38339V31.1595C4.38339 32.2695 4.82532 33.3341 5.61197 34.119C6.39861 34.9039 7.46553 35.3448 8.57802 35.3448H45.8054C46.9179 35.3448 47.9848 34.9039 48.7714 34.119C49.5581 33.3341 50 32.2695 50 31.1595V8.55893C50 7.44892 49.5581 6.38437 48.7714 5.59948C47.9848 4.81458 46.9179 4.37363 45.8054 4.37363ZM2.09732 7.28242H43.5403V11.5933H2.09732V7.28242ZM4.06879 2.09265H41.5688C42.0917 2.09265 42.5931 2.29989 42.9628 2.6688C43.3326 3.0377 43.5403 3.53803 43.5403 4.05974V5.18977H2.09732V4.05974C2.09732 3.53803 2.30502 3.0377 2.67475 2.6688C3.04447 2.29989 3.54592 2.09265 4.06879 2.09265ZM2.09732 26.9115V13.6859H43.5403V26.9115C43.5403 27.4332 43.3326 27.9335 42.9628 28.3024C42.5931 28.6713 42.0917 28.8785 41.5688 28.8785H4.06879C3.54592 28.8785 3.04447 28.6713 2.67475 28.3024C2.30502 27.9335 2.09732 27.4332 2.09732 26.9115ZM47.9027 31.0967C47.9027 31.6518 47.6817 32.184 47.2884 32.5765C46.8951 32.9689 46.3616 33.1894 45.8054 33.1894H8.57802C8.02178 33.1894 7.48832 32.9689 7.09499 32.5765C6.70167 32.184 6.4807 31.6518 6.4807 31.0967V30.9712H41.5688C42.1031 30.9712 42.6322 30.8662 43.1259 30.6622C43.6195 30.4581 44.068 30.1591 44.4459 29.7821C44.8237 29.4051 45.1234 28.9576 45.3279 28.465C45.5323 27.9725 45.6376 27.4446 45.6376 26.9115V6.46628H45.8263C46.3826 6.46628 46.916 6.68676 47.3094 7.07921C47.7027 7.47165 47.9237 8.00393 47.9237 8.55893L47.9027 31.0967Z" fill="#3852B9"/>
<path d="M31.6904 26.2C32.1982 26.2123 32.7032 26.1223 33.1753 25.9353C33.6474 25.7484 34.0768 25.4682 34.4379 25.1118C34.959 25.6647 35.6347 26.0487 36.3772 26.2138C37.1197 26.379 37.8948 26.3178 38.602 26.0381C39.3092 25.7584 39.9159 25.2732 40.3433 24.6453C40.7708 24.0175 40.9994 23.2759 40.9994 22.5169C40.9994 21.7579 40.7708 21.0163 40.3433 20.3885C39.9159 19.7606 39.3092 19.2754 38.602 18.9957C37.8948 18.716 37.1197 18.6548 36.3772 18.82C35.6347 18.9851 34.959 19.3691 34.4379 19.922C34.0161 19.4517 33.4827 19.0947 32.8866 18.8837C32.2905 18.6728 31.6509 18.6146 31.0264 18.7146C30.4019 18.8146 29.8126 19.0695 29.3126 19.456C28.8126 19.8424 28.4179 20.348 28.1648 20.9264C27.9117 21.5047 27.8083 22.1372 27.8641 22.7658C27.9198 23.3945 28.133 23.999 28.484 24.524C28.8349 25.049 29.3125 25.4776 29.8727 25.7704C30.433 26.0633 31.058 26.211 31.6904 26.2ZM37.1644 20.7381C37.5004 20.7381 37.8288 20.8376 38.1082 21.0238C38.3876 21.2101 38.6053 21.4748 38.7339 21.7845C38.8625 22.0943 38.8961 22.4351 38.8306 22.7639C38.765 23.0927 38.6032 23.3947 38.3656 23.6318C38.128 23.8688 37.8253 24.0303 37.4958 24.0957C37.1663 24.1611 36.8247 24.1275 36.5143 23.9992C36.2038 23.8709 35.9385 23.6537 35.7519 23.3749C35.5652 23.0962 35.4655 22.7684 35.4655 22.4332C35.4655 21.9836 35.6445 21.5525 35.9631 21.2346C36.2817 20.9167 36.7138 20.7381 37.1644 20.7381ZM31.6904 20.7381C32.0264 20.7381 32.3548 20.8376 32.6342 21.0238C32.9136 21.2101 33.1313 21.4748 33.2599 21.7845C33.3885 22.0943 33.4221 22.4351 33.3566 22.7639C33.291 23.0927 33.1292 23.3947 32.8916 23.6318C32.654 23.8688 32.3513 24.0303 32.0218 24.0957C31.6923 24.1611 31.3507 24.1275 31.0403 23.9992C30.7299 23.8709 30.4645 23.6537 30.2779 23.3749C30.0912 23.0962 29.9916 22.7684 29.9916 22.4332C29.9916 21.9836 30.1705 21.5525 30.4891 21.2346C30.8077 20.9167 31.2398 20.7381 31.6904 20.7381Z" fill="#3852B9"/>
</svg>
