<svg width="133" height="133" viewBox="0 0 133 133" fill="none" xmlns="http://www.w3.org/2000/svg">
<path fill-rule="evenodd" clip-rule="evenodd" d="M65.1235 51.0022C88.2089 25.3265 110.949 33.0904 115.534 47.0022C128.338 85.8548 61.8151 113.09 22.0381 84.1391C11.6974 76.6113 13.31 63.9298 34.7463 70.111C50.294 74.5964 53.2 64.2623 65.1235 51.0022Z" fill="#DCE7FF"/>
<path fill-rule="evenodd" clip-rule="evenodd" d="M83.0021 31.3647C81.8682 30.6033 76.7477 30.3306 76.2922 41.3331V49.6323C74.8259 48.924 69.722 46.0712 65.3796 47.4145C62.4303 48.3255 60.3256 51.3978 60.1926 53.4228C60.1926 53.4228 63.7935 50.254 69.5292 50.6929C69.5292 50.6929 63.3081 51.0653 59.767 55.4244C58.56 56.9107 57.5824 58.6962 57.087 60.904C54.2874 73.406 67.5607 76.5016 72.7411 67.8632C72.7411 67.8632 91.923 72.8507 99.1715 65.3196C106.939 57.2465 95.8299 46.2441 96.2123 43.0654C97.0202 36.3256 94.6296 36.7146 92.7709 34.1444C88.9006 28.7912 83.9031 28.7612 83.0021 31.3647Z" fill="#24245B"/>
<path fill-rule="evenodd" clip-rule="evenodd" d="M50.274 71.4044C50.7462 72.2822 48.9739 74.1541 46.3206 75.5839C43.6672 77.0103 41.1269 77.4592 40.6548 76.5781C40.1826 75.6969 41.9549 73.825 44.6082 72.3985C47.2616 70.9721 49.8019 70.5266 50.274 71.4044Z" fill="#232357"/>
<path fill-rule="evenodd" clip-rule="evenodd" d="M49.5924 73.1533C49.5924 73.1533 49.1801 72.3021 48.7744 71.0652C48.3688 69.8283 46.5034 68.8773 46.0878 67.8632C45.5325 66.5099 44.1128 63.8366 42.703 64.6546C41.9282 65.1035 43.4877 66.3171 43.4311 68.0361C43.4311 68.0361 42.8659 67.7801 42.3472 67.7202C42.3472 67.7202 38.1145 63.5806 35.5276 65.3163C35.5276 65.3163 33.5592 64.7311 33.2068 66.2107C33.0372 66.9189 35.1585 66.7194 37.7886 68.7676C37.7886 68.7676 38.4935 69.5357 39.1053 70.8358C39.5974 71.8798 41.5259 75.2846 42.703 77.0236C42.703 77.0302 47.3147 77.8981 49.5924 73.1533Z" fill="#F99382"/>
<path fill-rule="evenodd" clip-rule="evenodd" d="M50.2773 71.411C50.5998 72.0062 54.8891 79.8997 57.2532 83.238C57.2532 83.238 64.0295 68.485 67.9696 63.953C72.1126 59.185 82.8158 58.1276 88.5314 59.3379C94.2471 60.5449 100.814 63.6338 102.244 68.7776C104.468 76.7809 95.9129 86.9155 94.1407 89.2762L92.0858 99.5538C91.1116 101.948 75.022 107.042 63.3346 98.6826L65.0004 91.1681L63.8034 90.5996C63.8034 90.5996 61.4859 95.1847 56.7079 95.0817C52.9539 94.9985 49.077 91.6203 40.6581 76.5814C41.1336 77.4592 43.6705 77.0136 46.3239 75.5839C48.9673 74.1608 50.7362 72.2921 50.2773 71.411Z" fill="#006CFF"/>
<mask id="mask0_1_232" style="mask-type:luminance" maskUnits="userSpaceOnUse" x="40" y="58" width="63" height="46">
<path d="M50.2773 71.411C50.5998 72.0062 54.8891 79.8997 57.2532 83.238C57.2532 83.238 64.0295 68.485 67.9696 63.953C72.1126 59.185 82.8158 58.1276 88.5314 59.3379C94.2471 60.5449 100.814 63.6338 102.244 68.7776C104.468 76.7809 95.9129 86.9155 94.1407 89.2762L92.0858 99.5538C91.1116 101.948 75.022 107.042 63.3346 98.6826L65.0004 91.1681L63.8034 90.5996C63.8034 90.5996 61.4859 95.1847 56.7079 95.0817C52.9539 94.9985 49.077 91.6203 40.6581 76.5814C41.1336 77.4592 43.6705 77.0136 46.3239 75.5839C48.9673 74.1608 50.7362 72.2921 50.2773 71.411Z" fill="white"/>
</mask>
<g mask="url(#mask0_1_232)">
<path fill-rule="evenodd" clip-rule="evenodd" d="M84.6678 97.0867C90.5132 97.0567 92.5979 95.8797 96.2155 91.2679L94.1374 89.0967L84.8806 95.218C84.8806 95.218 82.214 97.1 84.6678 97.0867ZM58.4203 94.9121C60.9473 94.0642 62.2473 92.1723 62.4934 89.9512C62.4934 89.9512 65.6688 91.5273 65.0071 89.0468L64.7843 91.0618L62.2806 96.6278C62.2806 96.6278 56.5217 95.5472 58.4203 94.9121Z" fill="#24245B"/>
</g>
<path d="M68.1492 69.682C65.3063 74.2639 64.0794 77.3827 66.4534 80.0361" stroke="#24245B" stroke-width="8.1667" stroke-miterlimit="12.5" stroke-linecap="round" stroke-linejoin="round"/>
<path fill-rule="evenodd" clip-rule="evenodd" d="M80.1823 53.7021C79.8332 53.6489 79.4907 53.5558 79.1549 53.4228C75.5041 51.9797 74.3037 46.3438 76.4783 40.841C78.6528 35.3381 83.381 32.0397 87.0318 33.4827C89.8747 34.6033 91.2313 38.2674 90.6661 42.4336H92.0825C94.2637 42.6797 93.08 48.2524 89.8548 48.3854L88.5248 59.3712C85.4558 63.6538 77.8382 63.2681 78.8424 59.2216L80.1823 53.7021Z" fill="#F99382"/>
<mask id="mask1_1_232" style="mask-type:luminance" maskUnits="userSpaceOnUse" x="75" y="32" width="18" height="31">
<path d="M79.962 53.3263C79.6129 53.2731 79.2704 53.18 78.9346 53.047C75.2837 51.604 74.0834 45.9681 76.258 40.4652C78.4325 34.9623 83.1607 31.6639 86.8115 33.107C89.6544 34.2275 91.011 37.8917 90.4457 42.0579H91.8622C94.0434 42.3039 92.8597 47.8766 89.6344 48.0096L88.3044 58.9954C85.2355 63.278 77.6179 62.8923 78.622 58.8458L79.962 53.3263Z" fill="white"/>
</mask>
<g mask="url(#mask1_1_232)">
<path fill-rule="evenodd" clip-rule="evenodd" d="M79.962 53.3263C79.962 53.3263 81.977 53.7419 83.9886 52.5217C83.9886 52.5217 83.4101 55.7669 79.2871 56.116C79.2871 56.1127 78.2231 54.4801 79.962 53.3263Z" fill="#F99382"/>
</g>
<path fill-rule="evenodd" clip-rule="evenodd" d="M82.6495 33.1436C81.1499 39.3713 86.9554 47.5708 92.0825 42.4336L90.1906 31.8502L84.2089 32.2359L82.6495 33.1436Z" fill="#24245B"/>
<path fill-rule="evenodd" clip-rule="evenodd" d="M47.5143 53.5823C47.5143 51.7669 46.038 50.2906 44.2225 50.2906H29.0772C27.2584 50.2906 25.7854 51.7669 25.7854 53.5823V60.1658C25.7854 61.9846 27.2617 63.4576 29.0772 63.4576H44.2225C46.038 63.4576 47.5143 61.9813 47.5143 60.1658V53.5823Z" fill="#FFEBE2"/>
<mask id="mask2_1_232" style="mask-type:luminance" maskUnits="userSpaceOnUse" x="25" y="50" width="23" height="14">
<path d="M47.5143 53.5823C47.5143 51.7669 46.038 50.2906 44.2225 50.2906H29.0772C27.2584 50.2906 25.7854 51.7669 25.7854 53.5823V60.1658C25.7854 61.9846 27.2617 63.4576 29.0772 63.4576H44.2225C46.038 63.4576 47.5143 61.9813 47.5143 60.1658V53.5823Z" fill="white"/>
</mask>
<g mask="url(#mask2_1_232)">
<path fill-rule="evenodd" clip-rule="evenodd" d="M45.7487 60.5349C45.7553 60.5648 41.2267 57.1833 37.7121 54.7627C37.0072 54.2806 36.0829 54.2806 35.378 54.7627C31.8701 57.1733 27.3614 60.5416 27.3514 60.5349" fill="#FFEBE2"/>
<path d="M45.7487 60.5349C45.7553 60.5648 41.2267 57.1833 37.7121 54.7627C37.0072 54.2806 36.0829 54.2806 35.378 54.7627C31.8701 57.1733 27.3614 60.5416 27.3514 60.5349" stroke="black" stroke-miterlimit="12.5" stroke-linecap="round" stroke-linejoin="round"/>
<path fill-rule="evenodd" clip-rule="evenodd" d="M25.669 49.6788C24.462 50.7361 31.4944 55.4776 35.4944 58.1409C36.196 58.6097 37.1103 58.6064 37.8086 58.1309C41.7188 55.4443 48.2923 50.5732 47.6273 49.6788" fill="#FFEBE2"/>
<path d="M25.669 49.6788C24.462 50.7361 31.4944 55.4776 35.4944 58.1409C36.196 58.6097 37.1103 58.6064 37.8086 58.1309C41.7188 55.4443 48.2923 50.5732 47.6273 49.6788" stroke="black" stroke-miterlimit="12.5" stroke-linecap="round" stroke-linejoin="round"/>
</g>
<path fill-rule="evenodd" clip-rule="evenodd" d="M67.2714 78.9987C68.525 79.5739 68.4252 82.47 67.0553 85.4658C65.6821 88.4616 63.5541 90.4267 62.3005 89.8515C61.047 89.2763 61.1468 86.3802 62.5167 83.3844C63.8866 80.3919 66.0179 78.4235 67.2714 78.9987Z" fill="#232357"/>
<path fill-rule="evenodd" clip-rule="evenodd" d="M58.2507 79.3943L55.4211 71.3777L58.6929 72.1192L61.4161 80.5016L58.2507 79.3943Z" fill="black"/>
<path fill-rule="evenodd" clip-rule="evenodd" d="M58.6929 72.1159L59.5939 71.5773L62.2772 80.0361L61.416 80.4982L58.6929 72.1159Z" fill="#24245B"/>
<path fill-rule="evenodd" clip-rule="evenodd" d="M55.4211 71.3745L56.3588 70.7959L59.5973 71.5773L58.6963 72.1159L55.4211 71.3745Z" fill="#24245B"/>
<path fill-rule="evenodd" clip-rule="evenodd" d="M68.0229 80.0361C68.0229 80.0361 64.5051 78.736 63.5142 75.5839C63.082 74.2173 61.5092 74.3769 61.6655 76.3886C61.7187 77.0901 62.0678 78.7726 63.1418 79.7501C63.1418 79.7501 60.1028 79.4775 59.1252 78.49C57.1901 76.5382 55.4411 75.2215 54.7894 75.9995C54.1344 76.7842 56.3588 78.8989 56.3588 78.8989C56.3588 78.8989 56.1626 81.2763 57.2532 83.2381C57.2532 83.2381 55.8035 86.6163 64.2391 89.3261C64.2391 89.3261 71.2182 87.4808 68.0229 80.0361Z" fill="#F99382"/>
<path fill-rule="evenodd" clip-rule="evenodd" d="M94.1375 89.2729C94.1375 89.2729 89.549 95.5472 84.6679 97.0867C79.2082 98.809 62.2806 89.8415 62.2806 89.8415L62.2973 89.8515C63.5508 90.4267 65.6788 88.4583 67.052 85.4658C68.4252 82.47 68.5217 79.5739 67.2681 78.9987L81.6953 85.2763L93.0203 70.1243" fill="#006CFF"/>
<mask id="mask3_1_232" style="mask-type:luminance" maskUnits="userSpaceOnUse" x="62" y="70" width="33" height="28">
<path d="M94.1375 89.2729C94.1375 89.2729 89.549 95.5472 84.6679 97.0867C79.2082 98.809 62.2806 89.8415 62.2806 89.8415L62.2973 89.8515C63.5508 90.4267 65.6788 88.4583 67.052 85.4658C68.4252 82.47 68.5217 79.5739 67.2681 78.9987L81.6953 85.2763L93.0203 70.1243" fill="white"/>
</mask>
<g mask="url(#mask3_1_232)">
<path d="M67.2648 79.125L81.6953 85.4791L92.711 71.0652" stroke="#24245B" stroke-width="8.1667" stroke-miterlimit="12.5" stroke-linecap="round" stroke-linejoin="round"/>
</g>
<path d="M85.4425 96.9304C78.6928 99.2612 65.0004 91.1682 65.0004 91.1682M37.5226 68.3553C37.5226 68.3553 37.0737 67.9896 36.2525 67.3911C35.1552 66.5931 37.0006 63.7136 41.1967 69.3262C41.1967 69.3262 44.3156 69.9813 45.4627 72.761M58.6929 81.5622C57.7519 80.455 57.0038 79.6105 56.3554 78.8989M57.2532 83.238C57.2532 83.238 57.5557 83.6504 57.9215 84.0261M80.7044 40.5583C80.7044 40.5583 78.9222 43.8235 78.8291 44.6414C78.7692 45.1601 79.0419 45.3929 79.4276 45.5791M79.3677 48.5716C79.3677 48.5716 81.6653 49.2133 82.9986 47.1319M77.4658 39.2682C77.4658 39.2682 78.4467 37.1037 80.4218 38.2142M82.6495 38.4137C82.6495 38.4137 84.1192 37.5625 86.0044 39.2682M91.0684 43.6739C91.0684 43.6739 90.2139 44.7478 90.041 46.6032M90.2372 45.5026C90.2372 45.5026 90.8423 44.5683 91.8797 44.3921" stroke="#24245B" stroke-width="0.7" stroke-miterlimit="12.5" stroke-linecap="round" stroke-linejoin="round"/>
<path d="M47.5142 53.5292C49.3047 53.5292 50.7561 52.0777 50.7561 50.2873C50.7561 48.4968 49.3047 47.0454 47.5142 47.0454C45.7238 47.0454 44.2723 48.4968 44.2723 50.2873C44.2723 52.0777 45.7238 53.5292 47.5142 53.5292Z" fill="black"/>
<path fill-rule="evenodd" clip-rule="evenodd" d="M78.4601 40.3854C78.7294 40.3887 78.8857 40.7246 78.8092 41.1335C78.7327 41.5425 78.4501 41.8717 78.1808 41.865C77.9115 41.8617 77.7552 41.5259 77.8317 41.1136C77.9081 40.7079 78.1874 40.3788 78.4601 40.3854ZM83.4044 40.4685C83.6737 40.4719 83.83 40.8077 83.7535 41.22C83.677 41.629 83.3944 41.9581 83.1251 41.9515C82.8557 41.9482 82.6995 41.6123 82.7759 41.2C82.8524 40.7911 83.135 40.4619 83.4044 40.4685Z" fill="#24245B"/>
</svg>
