<svg width="148" height="148" viewBox="0 0 148 148" fill="none" xmlns="http://www.w3.org/2000/svg">
<g clip-path="url(#clip0_1_173)">
<path d="M147.815 118.516C147.006 122.285 143.491 124.875 139.629 124.875H109.844C107.924 124.875 106.375 126.424 106.375 128.344C106.375 130.263 107.924 131.812 109.844 131.812H114.469C118.608 131.812 121.984 134.934 122.47 138.935C122.516 139.236 122.563 139.536 122.563 139.837V139.906C122.563 140.022 122.539 140.137 122.516 140.253C122.516 140.484 122.493 140.716 122.447 140.947C121.938 144.924 118.585 148 114.469 148H35.8438C31.2188 148 27.5188 144.138 27.75 139.467C27.9813 135.096 31.9125 131.812 36.3063 131.812H45.0938C47.0131 131.812 48.5625 130.263 48.5625 128.344C48.5625 126.424 47.0131 124.875 45.0938 124.875H6.9375C2.98313 124.875 -0.185 121.591 4.27943e-07 117.567C0.208125 113.821 3.56125 111 7.3075 111H34.6875V76.3125H25.4375C20.0494 76.3125 15.6788 71.6181 16.2338 66.1144C16.7194 61.3044 21.0437 57.8125 25.8769 57.8125H28.9062C33.5312 57.8125 37.2313 53.9506 37 49.2794C36.7687 44.9087 32.8375 41.625 28.4438 41.625H13.875C8.48688 41.625 4.11625 36.9306 4.67125 31.4269C5.15688 26.6169 9.48125 23.125 14.3144 23.125H34.6875C37.4856 23.125 39.6825 20.6737 39.2431 17.76C38.8962 15.4706 36.7456 13.875 34.4331 13.875H28.9062C25.53 13.875 22.8475 11.0075 23.1481 7.56187C23.4025 4.5325 26.1775 2.3125 29.23 2.3125H112.156C115.532 2.3125 118.215 5.18 117.914 8.62563C117.66 11.655 114.885 13.875 111.833 13.875H100.594C98.6744 13.875 97.125 15.4244 97.125 17.3438C97.125 19.2631 98.6744 20.8125 100.594 20.8125H135.281C138.657 20.8125 141.34 23.68 141.039 27.1256C140.785 30.155 138.01 32.375 134.958 32.375H134.125C131.327 32.375 129.13 34.8262 129.569 37.74C129.916 40.0294 132.067 41.625 134.379 41.625H138.311C143.144 41.625 147.468 45.1169 147.954 49.9269C148.509 55.4306 144.138 60.125 138.75 60.125H129.5C125.546 60.125 122.377 63.4087 122.563 67.4325C122.771 71.1787 126.124 74 129.87 74H131.812C136.091 74 139.49 77.9081 138.611 82.325C137.941 85.6319 134.842 87.875 131.489 87.875H117.938C114.538 87.875 111.832 97.7262 112.179 101.195C112.48 104.201 115.232 108.688 118.261 108.688H139.906C144.924 108.688 148.902 113.336 147.815 118.516Z" fill="url(#paint0_radial_1_173)"/>
<path d="M74 13.875C42.0759 13.875 16.1875 39.7634 16.1875 71.6875C16.1875 103.612 42.0759 129.5 74 129.5C105.924 129.5 131.812 103.612 131.812 71.6875C131.812 39.7634 105.924 13.875 74 13.875Z" fill="url(#paint1_linear_1_173)"/>
<path d="M119.838 80.5143C119.67 81.9388 118.525 82.6927 117.387 82.6927C116.381 82.6927 115.382 82.1076 115.065 80.882C114.473 78.5903 113.757 76.3657 113.141 74.4741C109.458 63.1336 97.8604 55.4214 86.4228 55.4214C85.7244 55.4214 85.0237 55.4515 84.3276 55.5093C90.2523 57.542 96.8151 61.9681 100.776 67.421C111.028 81.5295 108.156 101.128 94.0448 111.377C90.9853 113.599 87.4796 114.813 83.7171 115.47C83.5506 115.5 83.3911 115.512 83.2338 115.512C80.8843 115.512 79.8368 112.36 81.9966 111.002C82.5632 110.646 83.1066 110.281 83.6131 109.913C93.8482 102.478 96.3179 88.548 91.6189 77.3693C91.5149 83.6293 90.4604 90.5205 86.5014 95.9711C80.3224 104.474 70.6954 108.99 60.9297 108.99C54.4964 108.99 47.9983 107.029 42.3951 102.957C38.9656 100.467 35.9131 96.9863 33.5313 93.136C32.4143 91.3322 33.8989 89.3874 35.6102 89.3874C36.1236 89.3874 36.6554 89.5608 37.148 89.9655C38.4129 91.0061 39.6594 91.9589 40.7832 92.7752C45.7042 96.3503 51.5896 98.124 57.3962 98.124C63.6701 98.124 69.8514 96.052 74.6174 91.9358C72.076 92.7151 69.301 93.0781 66.4589 93.0781C62.6017 93.0781 58.6219 92.4121 54.9334 91.212C38.3459 85.8238 29.2693 68.0106 34.6598 51.4231C35.9363 47.4965 38.2927 43.6623 41.1949 40.3161C41.7129 39.7195 42.3581 39.4628 42.9847 39.4628C44.5503 39.4628 46.028 41.0492 45.2718 42.8715C44.7122 44.2266 44.2289 45.5447 43.8381 46.7426C39.9299 58.7745 44.807 71.0793 55.1809 77.3601C51.5849 72.231 49.6956 66.4566 49.6956 59.718C49.6956 42.2841 64.4609 28.7883 81.8995 28.7883C85.7984 28.7883 89.8152 29.4936 93.5869 30.7863C96.1884 31.679 95.4461 35.5154 92.7544 35.5154C92.7151 35.5154 92.6734 35.5154 92.6318 35.5131C91.1842 35.4506 89.8013 35.4345 88.5595 35.4345C75.9078 35.4345 65.2333 43.7016 62.4676 55.507C66.2323 50.5004 71.6204 47.0964 78.0307 45.0151C81.2844 43.956 84.6074 43.4542 87.8866 43.4542C101.313 43.4542 114.004 51.8902 118.335 65.2218C119.862 69.9277 120.444 75.3621 119.838 80.5143Z" fill="#FCFCFC"/>
</g>
<defs>
<radialGradient id="paint0_radial_1_173" cx="0" cy="0" r="1" gradientUnits="userSpaceOnUse" gradientTransform="translate(73.4589 66.9631) scale(54.3831 54.3831)">
<stop/>
<stop offset="0.219"/>
<stop offset="0.644" stop-color="white"/>
<stop offset="1" stop-color="#FCFCFC" stop-opacity="0"/>
</radialGradient>
<linearGradient id="paint1_linear_1_173" x1="74" y1="0.365376" x2="74" y2="125.014" gradientUnits="userSpaceOnUse">
<stop offset="0.225" stop-color="#3852B9"/>
<stop offset="0.656"/>
<stop offset="1"/>
</linearGradient>
<clipPath id="clip0_1_173">
<rect width="148" height="148" fill="white"/>
</clipPath>
</defs>
</svg>
