<svg width="81" height="79" viewBox="0 0 81 79" fill="none" xmlns="http://www.w3.org/2000/svg">
<path d="M80.1578 63.0119C79.7189 65.0559 77.8129 66.4603 75.7188 66.4603H59.5677C58.5269 66.4603 57.6867 67.3005 57.6867 68.3413C57.6867 69.3821 58.5269 70.2222 59.5677 70.2222H62.0756C64.3202 70.2222 66.151 71.9151 66.4143 74.0844C66.4394 74.2475 66.4645 74.4105 66.4645 74.5735V74.6111C66.4645 74.6738 66.452 74.7365 66.4394 74.7992C66.4394 74.9246 66.4269 75.05 66.4018 75.1754C66.1259 77.3322 64.3077 79 62.0756 79H19.4407C16.9328 79 14.9264 76.9059 15.0518 74.3729C15.1772 72.0029 17.3089 70.2222 19.6915 70.2222H24.4566C25.4974 70.2222 26.3375 69.3821 26.3375 68.3413C26.3375 67.3005 25.4974 66.4603 24.4566 66.4603H3.76609C1.6218 66.4603 -0.0961367 64.6797 0.00418076 62.4978C0.117038 60.4664 1.93529 58.9365 3.96672 58.9365H18.8137V40.127H13.7978C10.8761 40.127 8.50609 37.5814 8.80704 34.597C9.07037 31.9887 11.4153 30.0952 14.0361 30.0952H15.6788C18.1867 30.0952 20.1931 28.0011 20.0677 25.4681C19.9423 23.0981 17.8105 21.3175 15.428 21.3175H7.52799C4.60624 21.3175 2.23624 18.7719 2.5372 15.7875C2.80053 13.1792 5.14545 11.2857 7.76624 11.2857H18.8137C20.331 11.2857 21.5223 9.95651 21.284 8.37651C21.0959 7.13508 19.9297 6.26984 18.6758 6.26984H15.6788C13.848 6.26984 12.3934 4.71492 12.5564 2.84651C12.6943 1.20381 14.1991 0 15.8543 0H60.8216C62.6524 0 64.107 1.55492 63.944 3.42333C63.8061 5.06603 62.3013 6.26984 60.6461 6.26984H54.5518C53.511 6.26984 52.6708 7.11 52.6708 8.15079C52.6708 9.19159 53.511 10.0317 54.5518 10.0317H73.3613C75.1921 10.0317 76.6467 11.5867 76.4837 13.4551C76.3458 15.0978 74.841 16.3016 73.1858 16.3016H72.7343C71.217 16.3016 70.0258 17.6308 70.264 19.2108C70.4521 20.4522 71.6183 21.3175 72.8723 21.3175H75.004C77.6248 21.3175 79.9697 23.211 80.2331 25.8192C80.534 28.8036 78.164 31.3492 75.2423 31.3492H70.2264C68.0821 31.3492 66.3642 33.1298 66.4645 35.3117C66.5774 37.3432 68.3956 38.873 70.427 38.873H71.4804C73.8002 38.873 75.6435 40.9922 75.167 43.3873C74.8034 45.1805 73.1231 46.3968 71.3048 46.3968H63.9566C62.1132 46.3968 60.6461 51.7387 60.8342 53.6197C60.9972 55.2498 62.4894 57.6825 64.1321 57.6825H75.8693C78.5904 57.6825 80.7472 60.203 80.1578 63.0119Z" fill="url(#paint0_radial_1_209)"/>
<path d="M40.1312 6.26984C22.8202 6.26984 8.78198 20.308 8.78198 37.619C8.78198 54.9301 22.8202 68.9682 40.1312 68.9682C57.4422 68.9682 71.4804 54.9301 71.4804 37.619C71.4804 20.308 57.4422 6.26984 40.1312 6.26984Z" fill="url(#paint1_linear_1_209)"/>
<path d="M64.9873 42.4055C64.8957 43.1779 64.275 43.5867 63.6581 43.5867C63.1126 43.5867 62.5709 43.2694 62.3991 42.6048C62.0781 41.3622 61.6893 40.1558 61.3558 39.1301C59.3582 32.9806 53.0695 28.7986 46.8674 28.7986C46.4887 28.7986 46.1088 28.8149 45.7313 28.8463C48.944 29.9485 52.5028 32.3486 54.6508 35.3055C60.2096 42.9559 58.6522 53.5833 51.0005 59.1409C49.3415 60.346 47.4405 61.0043 45.4003 61.3604C45.31 61.3767 45.2235 61.383 45.1382 61.383C43.8642 61.383 43.2961 59.6738 44.4673 58.9378C44.7745 58.7447 45.0692 58.5465 45.3439 58.3471C50.8939 54.3156 52.2332 46.7617 49.6851 40.7001C49.6287 44.0945 49.0568 47.8314 46.9101 50.787C43.5595 55.3978 38.3392 57.8468 33.0437 57.8468C29.5551 57.8468 26.0315 56.7834 22.9931 54.5752C21.1335 53.2247 19.4782 51.3375 18.1867 49.2496C17.581 48.2715 18.386 47.2169 19.314 47.2169C19.5924 47.2169 19.8808 47.311 20.1479 47.5304C20.8338 48.0947 21.5097 48.6113 22.1191 49.054C24.7875 50.9926 27.9789 51.9544 31.1276 51.9544C34.5296 51.9544 37.8815 50.8309 40.4659 48.5988C39.0878 49.0214 37.583 49.2183 36.0419 49.2183C33.9503 49.2183 31.7922 48.8571 29.7921 48.2063C20.7974 45.2846 15.8756 35.6252 18.7986 26.6305C19.4908 24.5013 20.7686 22.4222 22.3423 20.6077C22.6232 20.2842 22.9731 20.145 23.3129 20.145C24.1618 20.145 24.9631 21.0052 24.5531 21.9934C24.2496 22.7282 23.9875 23.4429 23.7756 24.0925C21.6564 30.6169 24.301 37.2893 29.9263 40.695C27.9764 37.9137 26.9519 34.7826 26.9519 31.1285C26.9519 21.6748 34.9585 14.3567 44.4147 14.3567C46.5289 14.3567 48.707 14.7391 50.7522 15.4401C52.1629 15.9241 51.7604 18.0045 50.3008 18.0045C50.2795 18.0045 50.2569 18.0045 50.2343 18.0032C49.4493 17.9694 48.6995 17.9606 48.0261 17.9606C41.1656 17.9606 35.3773 22.4435 33.8776 28.845C35.919 26.1302 38.8408 24.2844 42.3168 23.1558C44.0811 22.5815 45.8831 22.3094 47.6612 22.3094C54.9417 22.3094 61.8235 26.8838 64.1722 34.113C64.9998 36.6648 65.3158 39.6116 64.9873 42.4055Z" fill="white"/>
<defs>
<radialGradient id="paint0_radial_1_209" cx="0" cy="0" r="1" gradientUnits="userSpaceOnUse" gradientTransform="translate(39.8377 35.0572) scale(29.4896)">
<stop/>
<stop offset="0.219"/>
<stop offset="0.644" stop-color="white"/>
<stop offset="1" stop-color="#FCFCFC" stop-opacity="0"/>
</radialGradient>
<linearGradient id="paint1_linear_1_209" x1="40.1312" y1="-1.05585" x2="40.1312" y2="66.5356" gradientUnits="userSpaceOnUse">
<stop stop-color="#717171"/>
<stop offset="1" stop-color="#666565"/>
</linearGradient>
</defs>
</svg>
