<svg width="70" height="70" viewBox="0 0 70 70" fill="none" xmlns="http://www.w3.org/2000/svg">
<g clip-path="url(#clip0_273_3129)">
<path d="M9.42583 2.04615C4.69924 2.04615 2.04224 4.48587 2.04224 9.4707V60.8569C2.04224 65.5196 4.43109 67.9609 9.15379 67.9609H60.8421C65.565 67.9609 67.9575 65.6412 67.9575 60.8569V9.4707C67.9575 4.60745 65.565 2.04615 60.6938 2.04615C60.6938 2.04615 9.40948 2.02993 9.42583 2.04615Z" fill="black" stroke="black" stroke-width="3.408"/>
<path d="M35.372 7.31128C32.813 7.59714 23.5079 11.8432 23.2363 33.7371C22.9504 56.8004 32.813 61.6522 35.3996 61.5999V46.3668C33.2704 46.3668 32.842 44.0522 32.3556 39.2767C32.0338 36.1169 31.9401 32.2054 32.3556 28.3173C32.6474 25.5892 33.156 22.9263 35.3858 22.9263L35.372 7.31128Z" fill="white"/>
<path d="M40.8889 61.6268C41.8752 61.6268 42.5825 60.8246 42.5825 59.9255L42.5896 59.9185C42.5896 59.9185 42.5825 48.0458 42.5825 48.0386C42.5825 47.0967 41.818 46.3542 40.8889 46.3542H36.5667V61.6268C36.5667 61.6268 40.8784 61.6334 40.8819 61.6299L40.8889 61.6268Z" fill="white"/>
<path d="M40.8889 22.9263C41.8752 22.9263 42.5825 22.1241 42.5825 21.2251L42.5896 21.218C42.5896 21.218 42.5825 9.0028 42.5825 8.99561C42.5825 8.05378 41.818 7.31128 40.8889 7.31128H36.5667V22.9263C36.5667 22.9263 40.8784 22.9329 40.8819 22.9294L40.8889 22.9263Z" fill="white"/>
</g>
<defs>
<clipPath id="clip0_273_3129">
<rect width="70" height="70" fill="white"/>
</clipPath>
</defs>
</svg>
