<svg width="70" height="70" viewBox="0 0 70 70" fill="none" xmlns="http://www.w3.org/2000/svg">
<rect width="70" height="70" rx="5" fill="black"/>
<rect width="66" height="66" transform="translate(2 2)" fill="black"/>
<path d="M35.3306 6C23.4803 6 14 15.4802 14 27.3306C14 42.0249 22.0582 55.0603 34.1455 62.6445C34.8566 63.1185 35.8046 63.1185 36.7526 62.6445C48.6029 54.8233 56.6611 42.0249 56.6611 27.3306C56.6611 15.4802 47.1809 6 35.3306 6ZM35.3306 36.8108C30.1164 36.8108 25.8503 32.5447 25.8503 27.3306C25.8503 22.1164 30.1164 17.8503 35.3306 17.8503C40.5447 17.8503 44.8108 22.1164 44.8108 27.3306C44.8108 32.5447 40.5447 36.8108 35.3306 36.8108Z" fill="white"/>
</svg>
