<svg width="102" height="140" viewBox="0 0 102 140" fill="none" xmlns="http://www.w3.org/2000/svg">
<ellipse cx="50.565" cy="49.0922" rx="50.565" ry="49.0922" fill="#3852B9"/>
<path d="M80.5113 48.3595C80.5113 62.5957 67.1029 74.1364 50.565 74.1364C47.5991 74.1404 44.6454 73.7615 41.7796 73.0096C39.5935 74.0996 34.5737 76.1912 26.1289 77.5537C25.3802 77.6716 24.8113 76.9056 25.107 76.2207C26.4321 73.1422 27.6299 69.04 27.9893 65.2986C23.4038 60.7692 20.6188 54.8405 20.6188 48.3595C20.6188 34.1232 34.0272 22.5825 50.565 22.5825C67.1029 22.5825 80.5113 34.1232 80.5113 48.3595ZM39.3352 48.3595C39.3352 47.3828 38.9408 46.4462 38.2388 45.7556C37.5368 45.065 36.5847 44.6771 35.5919 44.6771C34.5991 44.6771 33.647 45.065 32.945 45.7556C32.243 46.4462 31.8486 47.3828 31.8486 48.3595C31.8486 49.3361 32.243 50.2728 32.945 50.9633C33.647 51.6539 34.5991 52.0419 35.5919 52.0419C36.5847 52.0419 37.5368 51.6539 38.2388 50.9633C38.9408 50.2728 39.3352 49.3361 39.3352 48.3595ZM54.3083 48.3595C54.3083 47.3828 53.9139 46.4462 53.2119 45.7556C52.5099 45.065 51.5578 44.6771 50.565 44.6771C49.5723 44.6771 48.6201 45.065 47.9181 45.7556C47.2161 46.4462 46.8218 47.3828 46.8218 48.3595C46.8218 49.3361 47.2161 50.2728 47.9181 50.9633C48.6201 51.6539 49.5723 52.0419 50.565 52.0419C51.5578 52.0419 52.5099 51.6539 53.2119 50.9633C53.9139 50.2728 54.3083 49.3361 54.3083 48.3595ZM65.5382 52.0419C66.5309 52.0419 67.4831 51.6539 68.1851 50.9633C68.8871 50.2728 69.2815 49.3361 69.2815 48.3595C69.2815 47.3828 68.8871 46.4462 68.1851 45.7556C67.4831 45.065 66.5309 44.6771 65.5382 44.6771C64.5454 44.6771 63.5933 45.065 62.8913 45.7556C62.1893 46.4462 61.7949 47.3828 61.7949 48.3595C61.7949 49.3361 62.1893 50.2728 62.8913 50.9633C63.5933 51.6539 64.5454 52.0419 65.5382 52.0419Z" fill="white"/>
<path fill-rule="evenodd" clip-rule="evenodd" d="M47.9098 75.1562V83.7812H50.066V75.1562H47.9098ZM61.7152 80.7126L55.0123 86.1405L56.3693 87.8162L63.0722 82.3883L61.7152 80.7126ZM66.0383 95.2362L57.6344 93.296L57.1493 95.3969L65.5533 97.3371L66.0383 95.2362ZM32.4226 97.3371L40.8265 95.3969L40.3414 93.296L31.9375 95.2362L32.4226 97.3371ZM34.9037 82.3883L41.6065 87.8162L42.9635 86.1405L36.2606 80.7126L34.9037 82.3883ZM60.8473 102.09C60.8473 100.314 59.4117 98.875 57.6129 98.875C55.8266 98.875 54.3785 100.333 54.3785 102.09V106.276V111.812H52.2223V106.422V91.3467C52.2223 89.5502 50.7867 88.0938 48.9879 88.0938C47.2016 88.0938 45.7535 89.5307 45.7535 91.3467V113.534C41.3151 108.789 35.4717 103.574 33.077 105.981C30.7328 108.338 36.7735 114.833 45.2088 129.026C49.0095 135.421 53.8185 139.843 61.9254 139.844C70.8569 139.844 78.0973 132.603 78.0973 123.672V116.657V106.436C78.0973 104.642 76.6617 103.188 74.8629 103.188C73.0766 103.188 71.6285 104.646 71.6285 106.436V111.273V111.812H69.4723V106.806V104.247C69.4723 102.471 68.0367 101.031 66.2379 101.031C64.4516 101.031 63.0035 102.46 63.0035 104.247V106.44V109.656H60.8473V106.44V102.09Z" fill="black"/>
</svg>
