<svg width="967" height="967" viewBox="0 0 967 967" fill="none" xmlns="http://www.w3.org/2000/svg">
<g clip-path="url(#clip0_27_51074)">
<path d="M785.285 258.138C627.402 59.3102 253.62 48.197 143.713 205.898C83.1549 292.79 108.461 422.679 120.947 486.767C143.924 604.705 200.583 680.631 212.955 696.736C242.976 735.815 315.894 830.738 425.607 852.436C613.068 889.511 846.978 700.746 859.937 487.776C867.408 364.994 798.935 275.328 785.285 258.138Z" fill="#F4F7FA"/>
<path d="M683.358 742.894C660.773 717.001 631.313 675.349 621.512 619.415C610.257 555.188 635.208 530.83 635.597 456.922C636.152 351.421 565.415 305.092 593.548 261.018C607.267 239.525 637.688 226.643 662.098 232.068C731.743 247.548 787.31 419.793 729.805 520.506C703.798 566.055 668.815 576.755 656.038 626.866C644.747 671.145 665.443 714.505 683.358 742.894Z" fill="url(#paint0_linear_27_51074)"/>
<mask id="mask0_27_51074" style="mask-type:luminance" maskUnits="userSpaceOnUse" x="586" y="230" width="168" height="513">
<path d="M683.358 742.894C660.773 717.001 631.313 675.349 621.512 619.415C610.257 555.188 635.208 530.83 635.597 456.922C636.152 351.421 565.415 305.092 593.548 261.018C607.267 239.525 637.688 226.643 662.098 232.068C731.743 247.548 787.31 419.793 729.805 520.506C703.798 566.055 668.815 576.755 656.038 626.866C644.747 671.145 665.443 714.505 683.358 742.894Z" fill="white"/>
</mask>
<g mask="url(#mask0_27_51074)">
<path d="M644.34 669.942C642.2 655.888 641.266 641.575 641.563 627.4C642.248 594.818 649.406 574.056 658.469 547.771C664.357 530.693 671.031 511.336 677.09 485.082C688.423 435.972 691.289 419.201 689.862 394.785C687.035 346.432 668.8 309.723 658.181 292.145C643.118 267.21 623.517 245.707 599.923 228.235L600.485 227.478C624.177 245.023 643.861 266.616 658.988 291.658C669.652 309.31 687.964 346.174 690.802 394.73C692.237 419.264 689.366 436.08 678.008 485.294C671.938 511.597 665.256 530.978 659.36 548.078C650.324 574.285 643.187 594.986 642.506 627.42C642.209 641.541 643.14 655.799 645.272 669.8L644.34 669.942Z" fill="white"/>
<path d="M685.582 361.71L685.267 361.001C671.63 330.289 643.38 318.622 622.083 314.243C598.956 309.487 578.794 312.052 578.592 312.079L578.469 311.145C578.672 311.118 598.968 308.532 622.247 313.314C643.602 317.7 671.879 329.348 685.803 359.894C688.105 356.803 698.242 342.422 704.028 321.575C710.043 299.907 712.453 266.612 689.774 231.042L690.568 230.535C713.444 266.412 711.003 300.003 704.927 321.864C698.346 345.542 686.188 360.951 686.067 361.104L685.582 361.71Z" fill="white"/>
<path d="M681.322 471.931C680.911 471.931 680.687 471.925 680.67 471.925L680.274 471.913L680.217 471.521C675.333 437.765 658.949 418.302 646.065 407.919C632.096 396.662 619.11 393.347 618.981 393.315L619.207 392.4C619.338 392.432 632.493 395.784 646.62 407.156C659.6 417.605 676.089 437.15 681.092 470.987C681.131 470.987 681.174 470.987 681.22 470.987C687.113 470.987 740.995 469.658 767.068 422.96L767.891 423.419C753.389 449.394 730.445 461.199 713.752 466.529C697.816 471.617 684.381 471.931 681.322 471.931Z" fill="white"/>
<path d="M677.131 543.89C667.033 543.89 660.989 541.811 660.912 541.784L660.593 541.671L660.597 541.334C661.014 504.771 620.843 462.206 620.437 461.781L621.119 461.13C621.527 461.557 661.71 504.128 661.542 540.996C663.379 541.56 673.059 544.196 687.532 542.23C702.352 540.215 725.372 532.821 750.878 509.037L751.52 509.726C725.807 533.704 702.565 541.149 687.596 543.172C683.759 543.691 680.251 543.89 677.131 543.89Z" fill="white"/>
</g>
<path d="M632.833 708.695C620.95 689.91 605.687 659.179 610.194 624.016C618.057 562.67 677.241 556.88 704.977 482.987C727.347 423.39 700.646 395.719 733.412 348.54C738.897 340.643 767.437 297.88 803.483 301.117C823.795 302.94 837.473 318.538 840.041 321.467C878.849 365.722 860.514 468.468 807.781 534.221C777.483 571.999 761.891 570.437 703.259 624.352C668.806 656.033 646.233 687.609 632.833 708.695Z" fill="url(#paint1_linear_27_51074)"/>
<mask id="mask1_27_51074" style="mask-type:luminance" maskUnits="userSpaceOnUse" x="609" y="300" width="252" height="409">
<path d="M632.833 708.695C620.95 689.91 605.687 659.179 610.194 624.016C618.057 562.67 677.241 556.88 704.977 482.987C727.347 423.39 700.646 395.719 733.412 348.54C738.897 340.643 767.437 297.88 803.483 301.117C823.795 302.94 837.473 318.538 840.041 321.467C878.849 365.722 860.514 468.468 807.781 534.221C777.483 571.999 761.891 570.437 703.259 624.352C668.806 656.033 646.233 687.609 632.833 708.695Z" fill="white"/>
</mask>
<g mask="url(#mask1_27_51074)">
<path d="M636.352 735.653C625.976 683.104 631.323 642.587 652.244 615.225C662.487 601.828 672.716 596.068 683.544 589.97C695.177 583.418 707.205 576.645 719.613 559.509C731.669 542.859 733.488 530.965 735.791 515.907C737.863 502.351 740.442 485.479 751.399 459.824C761.002 437.337 769.715 425.029 777.401 414.17C785.722 402.417 792.293 393.133 796.888 375.262C804.394 346.067 801.225 314.042 787.468 280.078L788.341 279.724C802.176 313.88 805.359 346.102 797.801 375.497C793.163 393.536 786.547 402.882 778.171 414.715C770.511 425.535 761.83 437.8 752.266 460.194C741.356 485.739 738.787 502.545 736.722 516.049C734.4 531.233 732.567 543.226 720.376 560.062C707.848 577.365 695.727 584.19 684.007 590.791C673.264 596.84 663.117 602.554 652.992 615.798C632.243 642.935 626.955 683.198 637.276 735.47L636.352 735.653Z" fill="white"/>
<path d="M774.032 419.851L773.98 419.222C773.917 418.455 767.244 342.319 730.88 325.08L731.284 324.229C766.359 340.856 774.137 411.106 774.861 418.517C811.937 403.971 833.329 378.555 844.763 359.746C857.213 339.262 860.855 322.008 860.89 321.837L861.814 322.026C861.778 322.2 858.103 339.614 845.568 360.236C834 379.268 812.301 405.02 774.62 419.623L774.032 419.851Z" fill="white"/>
<path d="M742.438 487.831C742.209 487.831 742.084 487.83 742.069 487.829L741.664 487.821L741.611 487.419C738.933 467.046 729.571 444.867 722.188 429.85C714.185 413.568 706.725 401.969 706.65 401.854L707.442 401.343C707.516 401.458 715.008 413.104 723.035 429.434C730.398 444.415 739.726 466.502 742.491 486.889C745.494 486.886 764.889 486.547 789.436 478.836C813.965 471.129 848.806 454.271 875.486 417.721L876.247 418.276C849.407 455.047 814.359 471.999 789.683 479.746C764.908 487.524 745.336 487.831 742.438 487.831Z" fill="white"/>
<path d="M721.25 587.083C704.303 587.083 694.262 584.795 694.037 584.741L693.553 584.626L693.693 584.149C706.511 540.583 673.563 491.47 673.228 490.979L674.007 490.448C674.343 490.941 707.3 540.053 694.739 583.928C700.146 585.047 749.936 594.118 814.524 565.137L814.91 565.997C776.388 583.281 743.087 587.083 721.25 587.083Z" fill="white"/>
</g>
<path d="M624.871 691.836C632.689 679.012 646.131 659.55 667.152 640.322C704.541 606.122 728.589 606.795 739.343 580.322C750.475 552.921 729.971 539.243 743.954 507.987C745.13 505.359 760.397 472.395 786.354 471.284C804.512 470.508 818.153 485.738 824.554 492.884C849.395 520.618 863.838 572.779 839.546 611.797C816.514 648.791 770.316 655.347 755.608 657.335C729.807 660.822 720.509 654.124 694.576 658.371C663.038 663.536 639.502 679.55 624.871 691.836Z" fill="url(#paint2_linear_27_51074)"/>
<path d="M358.46 786.785C370.343 768 385.606 737.269 381.099 702.106C373.236 640.76 314.052 634.97 286.316 561.077C263.946 501.48 290.646 473.809 257.881 426.63C252.396 418.733 223.856 375.97 187.81 379.207C167.498 381.03 153.82 396.628 151.252 399.556C112.444 443.811 130.779 546.557 183.512 612.311C213.81 650.089 229.402 648.527 288.034 702.442C322.487 734.123 345.06 765.699 358.46 786.785Z" fill="url(#paint3_linear_27_51074)"/>
<mask id="mask2_27_51074" style="mask-type:luminance" maskUnits="userSpaceOnUse" x="130" y="379" width="252" height="408">
<path d="M358.46 786.785C370.343 768 385.606 737.269 381.099 702.106C373.236 640.76 314.052 634.97 286.316 561.077C263.946 501.48 290.646 473.809 257.881 426.63C252.396 418.733 223.856 375.97 187.81 379.207C167.498 381.03 153.82 396.628 151.252 399.556C112.444 443.811 130.779 546.557 183.512 612.311C213.81 650.089 229.402 648.527 288.034 702.442C322.487 734.123 345.06 765.699 358.46 786.785Z" fill="white"/>
</mask>
<g mask="url(#mask2_27_51074)">
<path d="M354.941 813.743L354.017 813.56C364.338 761.289 359.05 721.025 338.301 693.888C328.175 680.644 318.028 674.93 307.286 668.88C295.565 662.279 283.445 655.454 270.917 638.152C258.726 621.316 256.892 609.323 254.571 594.139C252.506 580.635 249.937 563.829 239.027 538.284C229.464 515.89 220.782 503.626 213.122 492.805C204.745 480.972 198.129 471.626 193.491 453.587C185.934 424.192 189.116 391.97 202.951 357.814L203.824 358.168C190.068 392.133 186.898 424.157 194.404 453.352C198.999 471.223 205.571 480.507 213.891 492.261C221.579 503.12 230.291 515.428 239.894 537.913C250.851 563.569 253.43 580.44 255.502 593.997C257.804 609.055 259.623 620.948 271.68 637.599C284.088 654.734 296.116 661.508 307.749 668.059C318.577 674.157 328.805 679.918 339.049 693.315C359.97 720.677 365.317 761.194 354.941 813.743Z" fill="white"/>
<path d="M217.261 497.94L216.673 497.713C178.992 483.11 157.293 457.357 145.725 438.325C133.19 417.703 129.515 400.29 129.479 400.116L130.403 399.926C130.438 400.098 134.09 417.38 146.55 437.869C157.983 456.666 179.371 482.067 216.432 496.607C217.156 489.196 224.934 418.945 260.009 402.318L260.413 403.17C224.044 420.411 217.376 496.545 217.313 497.311L217.261 497.94Z" fill="white"/>
<path d="M248.855 565.922C245.959 565.922 226.387 565.615 201.609 557.836C176.934 550.089 141.886 533.136 115.046 496.366L115.807 495.81C142.496 532.373 177.351 549.232 201.891 556.936C226.427 564.64 245.796 564.976 248.801 564.979C251.566 544.591 260.894 522.505 268.258 507.524C276.285 491.193 283.776 479.548 283.851 479.432L284.643 479.944C284.568 480.059 277.102 491.667 269.099 507.951C261.719 522.965 252.36 545.139 249.682 565.509L249.629 565.911L249.223 565.919C249.208 565.92 249.083 565.922 248.855 565.922Z" fill="white"/>
<path d="M270.043 665.173C248.206 665.173 214.909 661.373 176.382 644.086L176.768 643.226C241.353 672.205 291.14 663.137 296.553 662.018C283.992 618.142 316.949 569.031 317.285 568.538L318.065 569.069C317.73 569.56 284.781 618.673 297.599 662.239L297.739 662.716L297.256 662.83C297.031 662.884 286.985 665.173 270.043 665.173Z" fill="white"/>
</g>
<path d="M366.422 769.926C358.604 757.102 345.162 737.64 324.141 718.412C286.752 684.212 262.704 684.885 251.949 658.412C240.817 631.011 261.322 617.333 247.338 586.077C246.162 583.449 230.896 550.484 204.939 549.374C186.78 548.597 173.139 563.828 166.738 570.973C141.898 598.708 127.454 650.869 151.747 689.887C174.778 726.88 220.977 733.437 235.684 735.425C261.486 738.912 270.783 732.214 296.717 736.461C328.255 741.626 351.791 757.64 366.422 769.926Z" fill="url(#paint4_linear_27_51074)"/>
<path d="M551.52 349.539C551.345 349.556 551.171 349.565 550.999 349.565C548.234 349.565 545.872 347.307 545.604 344.291C540.854 290.752 524.602 239.883 499.842 201.053C477.908 166.653 451.795 146.126 429.977 146.126C429.952 146.126 429.929 146.126 429.904 146.126C350.436 146.292 333.813 342.257 333.655 344.237C333.398 347.443 330.782 349.818 327.784 349.543C324.799 349.267 322.587 346.445 322.843 343.239C323.524 334.722 340.539 134.659 429.883 134.471C429.914 134.471 429.947 134.471 429.978 134.471C455.757 134.471 484.477 156.331 508.794 194.467C534.574 234.899 551.484 287.714 556.406 343.184C556.69 346.388 554.503 349.233 551.52 349.539Z" fill="url(#paint5_linear_27_51074)"/>
<path d="M219.934 752.877L324.545 809.762L387.928 600.852L283.49 320.779L253.876 328.578L208.942 730.814C207.925 739.919 212.317 748.735 219.934 752.877Z" fill="url(#paint6_linear_27_51074)"/>
<path opacity="0.3" d="M387.928 600.852L283.49 320.779L266.022 325.379C263.6 362.773 264.665 393.55 266.31 415.957C273.311 511.313 296.562 537.849 285.298 604.371C275.933 659.683 255.479 667.191 257.267 704.405C259.215 744.935 285.534 778.875 316.825 805.565L324.544 809.762L387.928 600.852Z" fill="url(#paint7_linear_27_51074)"/>
<path d="M283.49 320.779L677.436 342.226L802.63 768.386L324.545 809.762L283.49 320.779Z" fill="url(#paint8_linear_27_51074)"/>
<g opacity="0.3">
<path d="M677.436 342.226L471.99 331.041C468.524 336.492 463.932 345.372 463.076 356.7C458.019 423.701 596.271 445.391 608.657 527.633C618.087 590.246 560.062 662.492 508.288 694.679C453.74 728.591 416.779 711.418 379.887 749.067C363.678 765.609 353.807 786.294 347.937 807.737L802.63 768.386L677.436 342.226Z" fill="url(#paint9_linear_27_51074)"/>
</g>
<path d="M404.322 359.143C401.859 359.143 399.631 357.331 399.044 354.645C397.935 349.569 372.309 229.631 408.443 170.77C418.8 153.9 433.269 143.6 451.449 140.156C544.858 122.478 602.369 337.963 604.772 347.145C605.582 350.243 603.901 353.46 601.017 354.331C598.129 355.204 595.136 353.395 594.326 350.298C593.763 348.152 537.152 135.739 453.334 151.634C437.994 154.539 426.274 162.897 417.502 177.185C383.913 231.901 409.348 350.79 409.609 351.985C410.293 355.117 408.482 358.253 405.566 358.989C405.149 359.093 404.732 359.143 404.322 359.143Z" fill="url(#paint10_linear_27_51074)"/>
<path d="M404.36 376.308C412.734 376.308 419.522 369.017 419.522 360.022C419.522 351.028 412.734 343.737 404.36 343.737C395.986 343.737 389.197 351.028 389.197 360.022C389.197 369.017 395.986 376.308 404.36 376.308Z" fill="url(#paint11_linear_27_51074)"/>
<path d="M602.095 374.797C610.469 374.797 617.258 367.506 617.258 358.512C617.258 349.517 610.469 342.226 602.095 342.226C593.721 342.226 586.933 349.517 586.933 358.512C586.933 367.506 593.721 374.797 602.095 374.797Z" fill="url(#paint12_linear_27_51074)"/>
<path d="M707.584 547.29L585.276 428.027C582.698 425.513 579.007 424.81 575.781 426.218L510.51 454.715C505.009 457.116 503.113 464.458 506.676 469.56L613.202 622.079C616.146 626.294 621.681 627.224 625.683 624.175L706.737 562.422C711.455 558.827 711.867 551.466 707.584 547.29ZM567.724 469.953C563.603 472.929 557.108 470.303 553.217 464.086C549.326 457.87 549.512 450.419 553.633 447.442C557.754 444.467 564.249 447.093 568.141 453.309C572.032 459.526 571.845 466.977 567.724 469.953Z" fill="#D8DEE8"/>
<path d="M707.584 545.662L585.276 426.399C582.698 423.886 579.007 423.182 575.781 424.59L510.51 453.087C505.009 455.488 503.113 462.83 506.676 467.932L613.202 620.451C616.146 624.667 621.681 625.596 625.683 622.547L706.737 560.794C711.455 557.199 711.867 549.838 707.584 545.662ZM567.724 468.325C563.603 471.301 557.108 468.675 553.217 462.459C549.326 456.242 549.512 448.791 553.633 445.815C557.754 442.839 564.249 445.465 568.141 451.682C572.032 457.898 571.845 465.35 567.724 468.325Z" fill="#F4F7FA"/>
<path d="M542.305 439.037C541.915 439.037 541.543 438.807 541.381 438.425C537.144 428.436 531.429 419.809 524.395 412.781C505.122 393.526 480.234 390.498 456.165 387.57C432.215 384.656 409.593 381.904 396.08 362.845C392.659 358.02 387.346 349.3 390.196 345.104C391.34 343.421 393.623 342.647 396.976 342.807C397.53 342.833 397.957 343.303 397.931 343.857C397.905 344.411 397.442 344.847 396.882 344.812C395.086 344.728 392.758 344.904 391.856 346.232C390.342 348.462 392.642 354.527 397.717 361.684C410.717 380.019 432.911 382.719 456.408 385.577C480.814 388.546 506.051 391.616 525.814 411.361C533.031 418.572 538.89 427.414 543.228 437.641C543.445 438.151 543.207 438.74 542.697 438.957C542.569 439.011 542.436 439.037 542.305 439.037Z" fill="#26264F"/>
<path d="M552.752 459.219C552.494 459.219 552.236 459.121 552.041 458.924C551.65 458.531 551.652 457.896 552.044 457.505C552.128 457.421 560.503 448.946 560.462 437.642C560.437 430.699 557.278 424.089 551.073 417.996C537.915 405.075 503.005 390.111 472.205 376.908C453.405 368.849 435.648 361.238 423.987 354.675C421.343 353.186 418.546 351.773 415.673 350.474C415.168 350.246 414.944 349.652 415.172 349.147C415.4 348.642 415.994 348.417 416.5 348.646C419.426 349.969 422.276 351.409 424.972 352.926C436.538 359.436 454.247 367.027 472.995 375.063C503.958 388.336 539.053 403.379 552.479 416.564C559.086 423.052 562.447 430.149 562.468 437.655C562.503 449.806 553.827 458.561 553.458 458.928C553.263 459.122 553.007 459.219 552.752 459.219Z" fill="#26264F"/>
<path d="M707.584 545.662L585.276 426.399C582.698 423.886 579.006 423.182 575.781 424.59L569.968 427.128C571.488 432.672 573.763 438.909 577.235 445.276C595.302 478.404 624.943 476.975 631.791 499.966C637.86 520.342 617.502 531.273 614.818 559.865C613.477 574.151 616.538 593.154 632.933 617.024L706.737 560.794C711.455 557.199 711.867 549.838 707.584 545.662Z" fill="white"/>
<path d="M597.834 505.067C604.534 516.146 603.148 525.337 597.81 529.06C592.189 532.981 584.114 530.043 578.104 520.104C572.39 510.655 572.087 500.673 578.39 496.276C584.749 491.84 592.366 496.024 597.834 505.067ZM584.324 515.302C587.674 520.842 591.394 523.923 593.892 522.18C596.333 520.476 595.359 516.061 591.763 510.113C588.512 504.736 584.977 501.295 582.308 503.157C579.752 504.939 581.122 510.007 584.324 515.302ZM611.663 550.902L599.74 481.382L604.396 478.134L616.263 547.693L611.663 550.902ZM637.71 508.524C644.409 519.604 643.023 528.795 637.686 532.518C632.121 536.4 624.047 533.461 617.98 523.562C612.265 514.112 611.962 504.131 618.265 499.734C624.625 495.297 632.242 499.482 637.71 508.524ZM624.256 518.72C627.549 524.3 631.269 527.381 633.768 525.638C636.209 523.935 635.234 519.518 631.638 513.571C628.387 508.194 624.91 504.713 622.24 506.575C619.629 508.397 621.054 513.425 624.256 518.72Z" fill="#D8DEE8"/>
<path d="M614.226 589.362C612.587 589.362 610.988 588.47 610.075 586.855C608.686 584.397 609.415 581.193 611.704 579.7L670.604 541.297C672.893 539.806 675.876 540.589 677.266 543.047C678.656 545.505 677.926 548.709 675.637 550.202L616.738 588.605C615.951 589.118 615.083 589.362 614.226 589.362Z" fill="#D8DEE8"/>
<path d="M536.489 811.323C536.489 816.671 532.692 821.272 528.034 821.548L199.788 841.598C193.569 841.966 186.55 836.705 186.55 830.488V600.774C186.55 594.557 193.738 589.33 199.957 589.588L528.034 603.631C532.692 603.825 536.489 608.358 536.489 613.706V811.323Z" fill="url(#paint13_linear_27_51074)"/>
<path d="M542.575 811.698C542.575 817.072 538.76 821.695 534.078 821.973L202.327 841.639C196.078 842.009 190.943 837.203 190.943 830.956V600.13C190.943 593.883 196.078 588.985 202.327 589.244L534.078 603.001C538.76 603.196 542.575 607.751 542.575 613.125V811.698Z" fill="url(#paint14_linear_27_51074)"/>
<path d="M542.575 757.585L190.943 775.624V817.898L542.575 797.258V757.585Z" fill="url(#paint15_linear_27_51074)"/>
<g opacity="0.15">
<path d="M294.72 665.575C294.324 691.808 277.916 705.44 259.65 705.37C239.747 705.294 223.794 690.035 224.173 664.979C224.533 641.156 239.541 624.184 261.84 625.85C283.476 627.467 295.044 644.165 294.72 665.575ZM247.473 665.072C247.266 678.757 251.743 688.703 260.492 688.866C268.911 689.022 273.108 680.444 273.326 666.087C273.522 653.107 270.193 642.868 260.998 642.316C252.053 641.779 247.671 651.991 247.473 665.072ZM265.942 749.408L329.329 634.642C330.541 632.448 332.921 631.16 335.422 631.347C340.071 631.694 342.808 636.728 340.573 640.819L277.887 755.554C276.811 757.524 274.784 758.787 272.541 758.887L271.84 758.918C266.835 759.139 263.519 753.794 265.942 749.408ZM374.4 717.066C374.032 741.362 359.949 754.656 344.322 755.342C327.514 756.08 313.954 742.678 314.125 719.589C314.457 697.629 327.25 681.307 346.277 681.818C364.794 682.315 374.7 697.236 374.4 717.066ZM334.141 718.661C333.777 731.296 337.588 740.285 345.059 740.066C352.257 739.856 355.858 731.751 356.059 718.473C356.241 706.469 353.568 697.158 345.709 697.062C337.902 696.967 334.324 706.586 334.141 718.661Z" fill="url(#paint16_linear_27_51074)"/>
</g>
<path d="M297.782 664.354C297.385 690.586 280.978 704.219 262.711 704.149C242.809 704.072 226.855 688.813 227.234 663.758C227.595 639.935 242.602 622.963 264.901 624.629C286.537 626.245 298.106 642.944 297.782 664.354ZM250.534 663.85C250.327 677.535 254.805 687.482 263.553 687.644C271.972 687.8 276.17 679.222 276.387 664.865C276.583 651.885 273.254 641.646 264.06 641.094C255.114 640.558 250.732 650.769 250.534 663.85ZM269.003 748.187L332.39 633.421C333.602 631.226 335.982 629.939 338.483 630.126C343.132 630.473 345.87 635.507 343.634 639.598L280.948 754.333C279.872 756.302 277.845 757.566 275.603 757.665L274.901 757.696C269.896 757.918 266.58 752.572 269.003 748.187ZM377.461 715.845C377.094 740.141 363.01 753.434 347.383 754.121C330.575 754.859 317.016 741.457 317.186 718.367C317.518 696.408 330.312 680.086 349.338 680.597C367.855 681.094 377.761 696.015 377.461 715.845ZM337.202 717.439C336.839 730.075 340.649 739.063 348.12 738.845C355.319 738.634 358.919 730.529 359.12 717.252C359.302 705.247 356.629 695.936 348.771 695.841C340.963 695.746 337.385 705.364 337.202 717.439Z" fill="white"/>
<path opacity="0.3" d="M534.078 603.001L206.148 589.403C220.949 633.234 242.146 652.868 260.351 662.478C295.011 680.776 319.87 663.302 349.581 686.992C380.061 711.296 368.46 741.298 400.569 761.514C424.702 776.708 440.257 765.428 465.285 779.164C483.823 789.338 495.404 806.567 502.812 823.826L534.078 821.973C538.76 821.695 542.575 817.072 542.575 811.698V613.125C542.575 607.751 538.76 603.196 534.078 603.001Z" fill="url(#paint17_linear_27_51074)"/>
<path opacity="0.3" d="M537.956 708.055L529.954 700.462L522.362 708.464L514.36 700.872L506.768 708.873L498.766 701.281L491.174 709.282L483.172 701.69L475.58 709.691L467.578 702.099L459.986 710.1L451.984 702.508L444.392 710.509L436.39 702.917L428.798 710.918L420.796 703.326L413.204 711.327L402.98 701.626C402.98 705.499 402.98 821.484 402.98 821.484C402.98 821.484 402.562 828.348 394.264 830.154L535.78 819.779C537.395 819.659 538.908 819.205 540.266 818.501C541.693 816.666 542.574 814.271 542.574 811.697V703.186L537.956 708.055Z" fill="url(#paint18_linear_27_51074)"/>
<path d="M560.706 704.08V813.261C560.706 819.354 555.853 824.415 549.78 824.863L504.905 828.15L407.943 835.241C416.243 833.433 416.422 826.569 416.422 826.569C416.422 826.569 416.422 710.587 416.422 706.711L426.848 716.414L432.31 710.765L434.592 708.413L442.619 716.004L450.223 708.003L458.231 715.594L465.826 707.593L473.829 715.185L481.422 707.183L489.424 714.775L497.016 706.774L505.017 714.365L512.614 706.364L520.616 713.956L528.207 705.954L536.209 713.551L543.801 705.545L551.955 713.141L560.706 704.08Z" fill="white"/>
<path d="M544.369 767.489L526.868 768.278C525.691 768.331 524.763 769.3 524.763 770.479V778.511C524.763 779.777 525.827 780.782 527.091 780.711L544.592 779.724C545.759 779.659 546.671 778.693 546.671 777.524V769.69C546.671 768.434 545.623 767.432 544.369 767.489Z" fill="#D8DEE8"/>
<path d="M544.344 783.012L526.843 783.999C525.676 784.065 524.763 785.03 524.763 786.199V794.586C524.763 795.858 525.838 796.866 527.107 796.785L544.608 795.668C545.768 795.594 546.671 794.631 546.671 793.469V785.213C546.671 783.947 545.607 782.941 544.344 783.012Z" fill="#D8DEE8"/>
<path d="M546.671 745.225V730.853C546.671 729.605 545.636 728.606 544.388 728.651L526.887 729.281C525.702 729.324 524.763 730.297 524.763 731.483V746.014C524.763 747.27 525.811 748.272 527.066 748.215L544.567 747.426C545.744 747.373 546.671 746.403 546.671 745.225Z" fill="#D8DEE8"/>
<path d="M508.007 769.128L436.746 772.341C435.569 772.394 434.642 773.364 434.642 774.542V783.591C434.642 784.856 435.706 785.862 436.969 785.791L508.23 781.774C509.397 781.708 510.31 780.743 510.31 779.574V771.329C510.31 770.074 509.262 769.072 508.007 769.128Z" fill="#D8DEE8"/>
<path d="M507.982 785.062L436.721 789.079C435.554 789.145 434.642 790.11 434.642 791.279V800.339C434.642 801.611 435.716 802.619 436.986 802.538L508.247 797.989C509.407 797.915 510.31 796.953 510.31 795.79V787.262C510.31 785.996 509.246 784.991 507.982 785.062Z" fill="#D8DEE8"/>
<path d="M510.31 746.864V732.162C510.31 730.914 509.274 729.915 508.027 729.96L436.766 732.525C435.581 732.568 434.642 733.541 434.642 734.727V750.077C434.642 751.333 435.69 752.335 436.945 752.279L508.205 749.066C509.382 749.012 510.31 748.043 510.31 746.864Z" fill="#D8DEE8"/>
<path opacity="0.4" d="M504.828 828.15L407.904 835.241C416.205 833.433 416.421 826.569 416.421 826.569C416.421 826.569 416.421 710.587 416.421 706.711L426.848 716.414L432.309 710.765C436.864 714.886 440.526 721.504 441.542 731.993C444.931 766.91 461.287 764.611 480.596 765.922C499.906 767.233 508.793 789.579 500.979 806.845C497.484 814.567 498.909 822.352 504.828 828.15Z" fill="#F4F7FA"/>
<path d="M181.98 832.253V846.565C181.98 851.19 210.87 854.939 246.506 854.939C282.142 854.939 311.031 851.19 311.031 846.565V832.253H181.98Z" fill="url(#paint19_linear_27_51074)"/>
<path d="M311.031 832.253C311.031 836.878 282.142 840.627 246.506 840.627C210.87 840.627 181.981 836.878 181.981 832.253C181.981 827.629 210.87 823.88 246.506 823.88C282.142 823.88 311.031 827.629 311.031 832.253Z" fill="url(#paint20_linear_27_51074)"/>
<path d="M246.505 841.204C214.945 841.204 181.943 838.19 181.943 832.375C181.943 832.056 182.057 831.495 182.376 831.495C182.695 831.495 182.558 831.934 182.558 832.253C182.558 835.94 208.821 840.048 246.505 840.048C284.191 840.048 310.453 835.94 310.453 832.253C310.453 831.934 310.508 831.635 310.827 831.635C311.146 831.635 311.069 832.061 311.069 832.38C311.069 838.194 278.066 841.204 246.505 841.204Z" fill="url(#paint21_linear_27_51074)"/>
<path d="M240.408 832.72C241.042 832.282 241.715 831.85 242.436 831.423C243.151 830.997 244.081 830.611 245.208 830.267C246.342 829.923 247.76 829.643 249.462 829.426C251.164 829.209 253.292 829.095 255.833 829.082C258.327 829.07 260.666 829.149 262.856 829.32C265.04 829.49 266.967 829.745 268.632 830.084C270.289 830.424 271.642 830.843 272.686 831.342C273.722 831.843 274.34 832.415 274.539 833.06L281.805 833.134C282.332 833.137 282.798 833.18 283.197 833.263C283.603 833.346 283.8 833.45 283.8 833.577L283.803 834.175L274.463 834.085C274.135 834.818 273.301 835.488 271.959 836.096C270.624 836.705 268.916 837.231 266.837 837.676L263.435 837.203C263.131 837.157 262.88 837.097 262.684 837.025C262.488 836.954 262.393 836.876 262.392 836.791C262.392 836.676 262.655 836.545 263.181 836.398C263.707 836.25 264.301 836.067 264.962 835.849C265.624 835.632 266.271 835.375 266.912 835.078C267.546 834.783 267.97 834.429 268.19 834.017L246.144 833.798C245.565 834.224 244.912 834.643 244.197 835.054C243.476 835.466 242.525 835.836 241.337 836.165C240.149 836.494 238.671 836.761 236.901 836.967C235.124 837.172 232.901 837.281 230.212 837.294C228.191 837.304 226.224 837.227 224.297 837.065C222.37 836.902 220.659 836.658 219.164 836.333C217.669 836.008 216.444 835.606 215.482 835.127C214.527 834.648 213.99 834.098 213.879 833.476L207.898 833.415C207.37 833.412 206.904 833.37 206.484 833.291C206.072 833.211 205.862 833.105 205.861 832.972L205.858 832.374L214.036 832.452C214.398 831.821 215.139 831.272 216.272 830.805C217.405 830.337 218.788 829.92 220.422 829.556L223.161 829.932C223.993 830.049 224.406 830.186 224.407 830.343C224.407 830.427 224.238 830.533 223.894 830.658C223.543 830.784 223.139 830.934 222.666 831.108C222.201 831.283 221.742 831.487 221.304 831.723C220.859 831.957 220.529 832.223 220.308 832.52L240.408 832.72ZM220.232 833.535C220.396 833.928 220.763 834.265 221.319 834.549C221.874 834.834 222.565 835.068 223.397 835.251C224.229 835.435 225.162 835.568 226.197 835.654C227.238 835.74 228.326 835.78 229.461 835.774C230.786 835.768 231.942 835.711 232.928 835.603C233.907 835.495 234.771 835.349 235.52 835.164C236.263 834.979 236.918 834.765 237.471 834.52C238.023 834.275 238.516 834.01 238.96 833.724L220.232 833.535ZM268.227 833C268.063 832.603 267.662 832.254 267.039 831.955C266.415 831.656 265.617 831.404 264.65 831.201C263.682 830.997 262.553 830.846 261.261 830.746C259.977 830.647 258.557 830.601 257.003 830.609C255.625 830.615 254.429 830.677 253.436 830.794C252.443 830.911 251.579 831.067 250.843 831.264C250.114 831.461 249.486 831.691 248.981 831.953C248.469 832.215 247.99 832.496 247.552 832.794L268.227 833Z" fill="#FCB048"/>
<path d="M246.515 824.786C217.744 824.786 187.787 827.318 182.995 832.219C183.183 832.392 183.357 832.576 183.519 832.77C187.558 829.367 212.294 825.941 246.515 825.941C281.614 825.941 306.746 829.546 309.791 833.032C309.94 832.841 310.1 832.658 310.273 832.486C306.315 827.411 275.796 824.786 246.515 824.786Z" fill="url(#paint22_linear_27_51074)"/>
<path d="M164.043 817.22V831.532C164.043 836.157 192.932 839.906 228.568 839.906C264.204 839.906 293.093 836.157 293.093 831.532V817.22H164.043Z" fill="url(#paint23_linear_27_51074)"/>
<path d="M293.094 817.22C293.094 821.845 264.205 825.594 228.568 825.594C192.932 825.594 164.043 821.845 164.043 817.22C164.043 812.596 192.932 808.847 228.568 808.847C264.205 808.847 293.094 812.596 293.094 817.22Z" fill="url(#paint24_linear_27_51074)"/>
<path d="M228.568 826.171C197.008 826.171 164.005 823.157 164.005 817.343C164.005 817.023 164.119 816.462 164.439 816.462C164.758 816.462 164.621 816.901 164.621 817.22C164.621 820.908 190.883 825.016 228.568 825.016C266.253 825.016 292.516 820.908 292.516 817.22C292.516 816.901 292.57 816.602 292.889 816.602C293.209 816.602 293.132 817.028 293.132 817.347C293.132 823.161 260.128 826.171 228.568 826.171Z" fill="url(#paint25_linear_27_51074)"/>
<path d="M222.471 817.687C223.104 817.249 223.778 816.817 224.499 816.39C225.213 815.963 226.144 815.578 227.271 815.234C228.405 814.89 229.822 814.61 231.524 814.393C233.226 814.176 235.354 814.061 237.896 814.049C240.389 814.037 242.728 814.116 244.919 814.287C247.102 814.457 249.03 814.712 250.694 815.051C252.351 815.391 253.705 815.81 254.748 816.309C255.785 816.809 256.402 817.381 256.602 818.027L263.867 818.1C264.394 818.103 264.861 818.146 265.26 818.229C265.666 818.312 265.862 818.416 265.863 818.543L265.866 819.142L256.525 819.052C256.198 819.784 255.363 820.454 254.021 821.062C252.686 821.671 250.979 822.197 248.899 822.642L245.498 822.169C245.193 822.123 244.943 822.064 244.747 821.992C244.55 821.92 244.455 821.842 244.455 821.758C244.454 821.643 244.717 821.512 245.243 821.364C245.77 821.216 246.364 821.033 247.025 820.816C247.686 820.599 248.334 820.342 248.974 820.045C249.608 819.749 250.032 819.395 250.253 818.983L228.207 818.764C227.628 819.191 226.974 819.609 226.26 820.021C225.538 820.432 224.588 820.803 223.4 821.132C222.212 821.46 220.733 821.728 218.963 821.933C217.187 822.138 214.964 822.247 212.274 822.26C210.254 822.27 208.287 822.193 206.36 822.031C204.433 821.868 202.722 821.624 201.227 821.299C199.732 820.974 198.507 820.572 197.545 820.093C196.589 819.614 196.053 819.064 195.942 818.443L189.96 818.381C189.433 818.378 188.967 818.336 188.547 818.257C188.134 818.177 187.924 818.071 187.924 817.938L187.921 817.34L196.099 817.418C196.461 816.788 197.201 816.238 198.335 815.771C199.468 815.303 200.851 814.887 202.485 814.522L205.224 814.899C206.055 815.015 206.468 815.152 206.469 815.309C206.47 815.394 206.301 815.499 205.957 815.624C205.606 815.75 205.202 815.9 204.729 816.075C204.264 816.249 203.805 816.454 203.367 816.689C202.922 816.924 202.592 817.189 202.371 817.487L222.471 817.687ZM202.295 818.502C202.459 818.895 202.825 819.232 203.381 819.516C203.937 819.801 204.627 820.035 205.46 820.218C206.292 820.401 207.225 820.535 208.259 820.621C209.301 820.706 210.389 820.747 211.524 820.741C212.849 820.735 214.004 820.678 214.99 820.57C215.97 820.462 216.834 820.316 217.583 820.131C218.326 819.946 218.98 819.732 219.533 819.487C220.086 819.242 220.578 818.978 221.023 818.691L202.295 818.502ZM250.289 817.967C250.125 817.569 249.724 817.221 249.101 816.922C248.478 816.623 247.679 816.371 246.712 816.168C245.745 815.964 244.615 815.812 243.324 815.713C242.039 815.614 240.62 815.568 239.066 815.575C237.687 815.582 236.491 815.644 235.498 815.76C234.505 815.877 233.641 816.033 232.905 816.231C232.176 816.428 231.549 816.657 231.043 816.92C230.531 817.182 230.052 817.462 229.615 817.761L250.289 817.967Z" fill="#FCB048"/>
<path d="M228.577 809.753C199.806 809.753 169.849 812.285 165.058 817.186C165.245 817.359 165.42 817.543 165.581 817.737C169.62 814.335 194.356 810.909 228.577 810.909C263.676 810.909 288.808 814.513 291.853 818C292.002 817.808 292.162 817.625 292.335 817.453C288.378 812.378 257.859 809.753 228.577 809.753Z" fill="url(#paint26_linear_27_51074)"/>
<path d="M179.521 802.231V816.543C179.521 821.168 208.41 824.917 244.046 824.917C279.682 824.917 308.571 821.168 308.571 816.543V802.231H179.521Z" fill="url(#paint27_linear_27_51074)"/>
<path d="M308.571 802.231C308.571 806.856 279.683 810.605 244.046 810.605C208.41 810.605 179.521 806.856 179.521 802.231C179.521 797.607 208.41 793.858 244.046 793.858C279.683 793.858 308.571 797.607 308.571 802.231Z" fill="url(#paint28_linear_27_51074)"/>
<path d="M244.046 811.182C212.485 811.182 179.483 808.168 179.483 802.354C179.483 802.034 179.597 801.473 179.916 801.473C180.235 801.473 180.098 801.912 180.098 802.231C180.098 805.919 206.36 810.027 244.046 810.027C281.731 810.027 307.993 805.919 307.993 802.231C307.993 801.912 308.048 801.613 308.367 801.613C308.686 801.613 308.609 802.039 308.609 802.358C308.609 808.173 275.606 811.182 244.046 811.182Z" fill="url(#paint29_linear_27_51074)"/>
<path d="M237.949 802.698C238.582 802.26 239.255 801.828 239.976 801.401C240.691 800.975 241.621 800.589 242.748 800.245C243.882 799.901 245.3 799.621 247.002 799.404C248.704 799.187 250.832 799.072 253.373 799.06C255.867 799.048 258.206 799.127 260.396 799.298C262.58 799.468 264.508 799.723 266.171 800.062C267.829 800.402 269.183 800.822 270.226 801.32C271.262 801.82 271.88 802.392 272.079 803.038L279.344 803.111C279.872 803.114 280.338 803.157 280.737 803.24C281.143 803.323 281.34 803.428 281.34 803.554L281.343 804.153L272.003 804.063C271.675 804.795 270.84 805.465 269.498 806.073C268.163 806.682 266.456 807.208 264.377 807.653L260.975 807.18C260.671 807.134 260.42 807.075 260.224 807.003C260.028 806.931 259.933 806.853 259.932 806.769C259.932 806.653 260.195 806.522 260.721 806.375C261.247 806.227 261.841 806.044 262.502 805.827C263.164 805.61 263.811 805.353 264.451 805.056C265.085 804.76 265.509 804.406 265.73 803.994L243.684 803.775C243.105 804.201 242.452 804.62 241.737 805.032C241.016 805.443 240.065 805.813 238.877 806.142C237.69 806.471 236.211 806.738 234.441 806.944C232.665 807.149 230.442 807.257 227.752 807.271C225.731 807.281 223.764 807.204 221.837 807.042C219.911 806.878 218.199 806.635 216.704 806.31C215.209 805.985 213.984 805.582 213.022 805.104C212.067 804.625 211.53 804.075 211.419 803.453L205.437 803.392C204.91 803.389 204.444 803.347 204.024 803.267C203.612 803.188 203.401 803.082 203.401 802.949L203.398 802.351L211.576 802.429C211.938 801.798 212.679 801.249 213.812 800.782C214.944 800.314 216.328 799.897 217.962 799.533L220.701 799.909C221.532 800.026 221.945 800.163 221.946 800.32C221.946 800.405 221.778 800.51 221.434 800.635C221.083 800.761 220.678 800.911 220.206 801.085C219.741 801.26 219.282 801.465 218.844 801.7C218.399 801.935 218.069 802.2 217.848 802.498L237.949 802.698ZM217.772 803.513C217.937 803.905 218.303 804.243 218.859 804.527C219.414 804.812 220.105 805.046 220.937 805.229C221.769 805.412 222.703 805.547 223.737 805.632C224.778 805.718 225.866 805.758 227.002 805.753C228.326 805.746 229.482 805.689 230.468 805.581C231.447 805.474 232.311 805.328 233.061 805.143C233.804 804.958 234.458 804.743 235.011 804.498C235.564 804.254 236.056 803.989 236.5 803.703L217.772 803.513ZM265.767 802.978C265.603 802.581 265.202 802.232 264.579 801.933C263.956 801.634 263.157 801.382 262.19 801.179C261.222 800.975 260.093 800.823 258.801 800.724C257.517 800.625 256.097 800.579 254.543 800.586C253.164 800.593 251.969 800.655 250.976 800.772C249.983 800.889 249.119 801.045 248.383 801.242C247.654 801.439 247.026 801.669 246.521 801.931C246.009 802.193 245.53 802.474 245.092 802.772L265.767 802.978Z" fill="#FCB048"/>
<path d="M244.055 794.764C215.284 794.764 185.327 797.296 180.535 802.197C180.723 802.37 180.897 802.554 181.059 802.748C185.098 799.345 209.834 795.92 244.054 795.92C279.154 795.92 304.286 799.524 307.33 803.01C307.48 802.819 307.64 802.636 307.813 802.464C303.855 797.389 273.336 794.764 244.055 794.764Z" fill="url(#paint30_linear_27_51074)"/>
<path d="M188.913 787.198V801.51C188.913 806.135 217.802 809.884 253.438 809.884C289.075 809.884 317.964 806.135 317.964 801.51V787.198H188.913Z" fill="url(#paint31_linear_27_51074)"/>
<path d="M253.439 795.572C289.075 795.572 317.964 791.823 317.964 787.198C317.964 782.574 289.075 778.825 253.439 778.825C217.802 778.825 188.913 782.574 188.913 787.198C188.913 791.823 217.802 795.572 253.439 795.572Z" fill="url(#paint32_linear_27_51074)"/>
<path d="M253.438 796.149C221.878 796.149 188.875 793.135 188.875 787.32C188.875 787.001 188.989 786.44 189.309 786.44C189.628 786.44 189.49 786.879 189.49 787.198C189.49 790.885 215.753 794.994 253.438 794.994C291.123 794.994 317.385 790.886 317.385 787.198C317.385 786.879 317.44 786.579 317.759 786.579C318.079 786.579 318.001 787.006 318.001 787.325C318.002 793.139 284.999 796.149 253.438 796.149Z" fill="url(#paint33_linear_27_51074)"/>
<path d="M247.341 787.665C247.974 787.226 248.648 786.794 249.369 786.367C250.083 785.941 251.014 785.556 252.141 785.212C253.274 784.868 254.692 784.588 256.394 784.371C258.096 784.154 260.225 784.039 262.765 784.027C265.259 784.015 267.598 784.094 269.788 784.265C271.972 784.435 273.899 784.69 275.564 785.029C277.221 785.369 278.575 785.789 279.618 786.287C280.655 786.787 281.272 787.36 281.471 788.005L288.737 788.079C289.264 788.082 289.731 788.125 290.13 788.208C290.536 788.291 290.732 788.395 290.733 788.522L290.736 789.12L281.395 789.03C281.068 789.763 280.233 790.433 278.891 791.041C277.556 791.649 275.848 792.176 273.769 792.621L270.368 792.148C270.063 792.101 269.813 792.042 269.616 791.97C269.42 791.899 269.325 791.821 269.325 791.736C269.324 791.621 269.587 791.49 270.113 791.343C270.64 791.195 271.234 791.012 271.895 790.794C272.556 790.577 273.203 790.32 273.844 790.023C274.478 789.727 274.902 789.373 275.123 788.961L253.077 788.742C252.497 789.169 251.844 789.587 251.13 789.999C250.408 790.41 249.457 790.781 248.269 791.109C247.082 791.438 245.603 791.705 243.833 791.911C242.057 792.116 239.834 792.225 237.144 792.238C235.123 792.248 233.156 792.171 231.229 792.009C229.302 791.846 227.592 791.602 226.096 791.277C224.601 790.952 223.376 790.55 222.414 790.072C221.459 789.592 220.922 789.043 220.811 788.42L214.83 788.359C214.303 788.356 213.836 788.315 213.417 788.235C213.004 788.155 212.794 788.049 212.793 787.916L212.79 787.318L220.968 787.396C221.33 786.765 222.071 786.216 223.204 785.748C224.337 785.281 225.721 784.864 227.354 784.5L230.093 784.876C230.925 784.993 231.338 785.13 231.339 785.287C231.339 785.371 231.171 785.476 230.827 785.602C230.476 785.728 230.071 785.878 229.599 786.052C229.133 786.227 228.675 786.432 228.237 786.667C227.792 786.901 227.462 787.167 227.24 787.465L247.341 787.665ZM227.165 788.48C227.329 788.872 227.695 789.21 228.251 789.494C228.807 789.779 229.497 790.012 230.329 790.196C231.161 790.379 232.095 790.513 233.129 790.599C234.17 790.684 235.258 790.725 236.394 790.719C237.718 790.713 238.874 790.655 239.86 790.548C240.839 790.44 241.704 790.294 242.453 790.109C243.195 789.924 243.85 789.71 244.403 789.465C244.956 789.22 245.448 788.955 245.893 788.669L227.165 788.48ZM275.159 787.945C274.995 787.548 274.595 787.199 273.971 786.9C273.348 786.601 272.549 786.349 271.582 786.146C270.614 785.942 269.485 785.79 268.194 785.691C266.909 785.592 265.49 785.546 263.935 785.553C262.557 785.56 261.361 785.622 260.368 785.738C259.375 785.855 258.511 786.011 257.775 786.209C257.046 786.406 256.419 786.635 255.913 786.898C255.401 787.16 254.922 787.44 254.485 787.739L275.159 787.945Z" fill="#FCB048"/>
<path d="M253.447 779.731C224.676 779.731 194.72 782.263 189.928 787.164C190.116 787.336 190.29 787.521 190.452 787.715C194.49 784.312 219.226 780.886 253.447 780.886C288.546 780.886 313.678 784.491 316.723 787.977C316.873 787.786 317.033 787.603 317.205 787.431C313.248 782.356 282.729 779.731 253.447 779.731Z" fill="url(#paint34_linear_27_51074)"/>
<path d="M181.98 770.979V785.291C181.98 789.916 210.87 793.665 246.506 793.665C282.142 793.665 311.031 789.916 311.031 785.291V770.979H181.98Z" fill="url(#paint35_linear_27_51074)"/>
<path d="M311.031 770.979C311.031 775.604 282.142 779.353 246.506 779.353C210.87 779.353 181.981 775.604 181.981 770.979C181.981 766.355 210.87 762.606 246.506 762.606C282.142 762.606 311.031 766.355 311.031 770.979Z" fill="url(#paint36_linear_27_51074)"/>
<path d="M246.505 779.93C214.945 779.93 181.943 776.916 181.943 771.102C181.943 770.782 182.057 770.221 182.376 770.221C182.695 770.221 182.558 770.66 182.558 770.979C182.558 774.667 208.821 778.775 246.505 778.775C284.191 778.775 310.453 774.667 310.453 770.979C310.453 770.66 310.508 770.361 310.827 770.361C311.146 770.361 311.069 770.787 311.069 771.106C311.069 776.92 278.066 779.93 246.505 779.93Z" fill="url(#paint37_linear_27_51074)"/>
<path d="M240.408 771.446C241.042 771.008 241.715 770.576 242.436 770.149C243.151 769.723 244.081 769.338 245.208 768.993C246.342 768.649 247.76 768.369 249.462 768.152C251.164 767.935 253.292 767.821 255.833 767.808C258.327 767.796 260.666 767.875 262.856 768.046C265.04 768.216 266.967 768.471 268.632 768.811C270.289 769.15 271.642 769.57 272.686 770.068C273.722 770.569 274.34 771.141 274.539 771.786L281.805 771.86C282.332 771.863 282.798 771.906 283.197 771.989C283.603 772.071 283.8 772.176 283.8 772.303L283.803 772.901L274.463 772.811C274.135 773.544 273.301 774.214 271.959 774.822C270.624 775.43 268.916 775.957 266.837 776.402L263.435 775.929C263.131 775.882 262.88 775.823 262.684 775.751C262.488 775.68 262.393 775.602 262.392 775.517C262.392 775.402 262.655 775.271 263.181 775.124C263.707 774.976 264.301 774.793 264.962 774.575C265.624 774.358 266.271 774.101 266.912 773.804C267.546 773.508 267.97 773.154 268.19 772.742L246.144 772.524C245.565 772.95 244.912 773.368 244.197 773.78C243.476 774.192 242.525 774.562 241.337 774.891C240.149 775.22 238.671 775.486 236.901 775.692C235.124 775.897 232.901 776.006 230.212 776.019C228.191 776.029 226.224 775.953 224.297 775.79C222.37 775.627 220.659 775.383 219.164 775.059C217.669 774.733 216.444 774.331 215.482 773.853C214.527 773.374 213.99 772.824 213.879 772.202L207.898 772.141C207.37 772.137 206.904 772.096 206.484 772.016C206.072 771.936 205.862 771.83 205.861 771.697L205.858 771.099L214.036 771.177C214.398 770.547 215.139 769.997 216.272 769.53C217.405 769.062 218.788 768.646 220.422 768.281L223.161 768.658C223.993 768.775 224.406 768.911 224.407 769.068C224.407 769.153 224.238 769.258 223.894 769.383C223.543 769.509 223.139 769.659 222.666 769.834C222.201 770.008 221.742 770.213 221.304 770.448C220.859 770.683 220.529 770.948 220.308 771.246L240.408 771.446ZM220.232 772.262C220.396 772.654 220.763 772.991 221.319 773.275C221.874 773.561 222.565 773.794 223.397 773.977C224.229 774.16 225.162 774.295 226.197 774.38C227.238 774.466 228.326 774.506 229.461 774.501C230.786 774.494 231.942 774.437 232.928 774.33C233.907 774.222 234.771 774.076 235.52 773.891C236.263 773.705 236.918 773.491 237.471 773.247C238.023 773.002 238.516 772.737 238.96 772.451L220.232 772.262ZM268.227 771.726C268.063 771.329 267.662 770.98 267.039 770.681C266.415 770.382 265.617 770.13 264.65 769.927C263.682 769.723 262.553 769.571 261.261 769.472C259.977 769.373 258.557 769.327 257.003 769.334C255.625 769.341 254.429 769.403 253.436 769.52C252.443 769.637 251.579 769.793 250.843 769.99C250.114 770.187 249.486 770.417 248.981 770.679C248.469 770.941 247.99 771.222 247.552 771.52L268.227 771.726Z" fill="#FCB048"/>
<path d="M246.515 763.512C217.744 763.512 187.787 766.044 182.995 770.945C183.183 771.118 183.357 771.302 183.519 771.496C187.558 768.093 212.294 764.667 246.515 764.667C281.614 764.667 306.746 768.272 309.791 771.758C309.94 771.567 310.1 771.384 310.273 771.212C306.315 766.137 275.796 763.512 246.515 763.512Z" fill="url(#paint38_linear_27_51074)"/>
<path d="M164.043 755.946V770.258C164.043 774.883 192.932 778.632 228.568 778.632C264.204 778.632 293.093 774.883 293.093 770.258V755.946H164.043Z" fill="url(#paint39_linear_27_51074)"/>
<path d="M228.568 764.32C264.205 764.32 293.094 760.571 293.094 755.946C293.094 751.322 264.205 747.573 228.568 747.573C192.932 747.573 164.043 751.322 164.043 755.946C164.043 760.571 192.932 764.32 228.568 764.32Z" fill="url(#paint40_linear_27_51074)"/>
<path d="M228.568 764.897C197.008 764.897 164.005 761.883 164.005 756.068C164.005 755.749 164.119 755.188 164.439 755.188C164.758 755.188 164.621 755.627 164.621 755.946C164.621 759.634 190.883 763.742 228.568 763.742C266.253 763.742 292.516 759.634 292.516 755.946C292.516 755.627 292.57 755.328 292.889 755.328C293.209 755.328 293.132 755.754 293.132 756.073C293.132 761.888 260.128 764.897 228.568 764.897Z" fill="url(#paint41_linear_27_51074)"/>
<path d="M222.471 756.413C223.104 755.975 223.778 755.543 224.499 755.116C225.213 754.69 226.144 754.304 227.271 753.96C228.405 753.616 229.822 753.336 231.524 753.119C233.226 752.902 235.354 752.787 237.896 752.775C240.389 752.763 242.728 752.842 244.919 753.013C247.102 753.183 249.03 753.438 250.694 753.778C252.351 754.117 253.705 754.537 254.748 755.036C255.785 755.536 256.402 756.108 256.602 756.753L263.867 756.827C264.394 756.83 264.861 756.873 265.26 756.956C265.666 757.039 265.862 757.143 265.863 757.27L265.866 757.868L256.525 757.778C256.198 758.511 255.363 759.181 254.021 759.789C252.686 760.397 250.979 760.924 248.899 761.369L245.498 760.896C245.193 760.849 244.943 760.79 244.747 760.718C244.55 760.647 244.455 760.569 244.455 760.484C244.454 760.369 244.717 760.238 245.243 760.091C245.77 759.943 246.364 759.76 247.025 759.542C247.686 759.325 248.334 759.068 248.974 758.771C249.608 758.475 250.032 758.122 250.253 757.709L228.207 757.491C227.628 757.917 226.974 758.336 226.26 758.747C225.538 759.159 224.588 759.529 223.4 759.858C222.212 760.187 220.733 760.454 218.963 760.659C217.187 760.864 214.964 760.973 212.274 760.986C210.254 760.997 208.287 760.92 206.36 760.757C204.433 760.594 202.722 760.35 201.227 760.026C199.732 759.7 198.507 759.298 197.545 758.82C196.589 758.341 196.053 757.791 195.942 757.169L189.96 757.107C189.433 757.104 188.967 757.063 188.547 756.983C188.134 756.903 187.924 756.797 187.924 756.665L187.921 756.066L196.099 756.144C196.461 755.514 197.201 754.965 198.335 754.497C199.468 754.029 200.851 753.613 202.485 753.249L205.224 753.625C206.055 753.742 206.468 753.879 206.469 754.035C206.47 754.12 206.301 754.225 205.957 754.351C205.606 754.476 205.202 754.627 204.729 754.801C204.264 754.976 203.805 755.18 203.367 755.415C202.922 755.65 202.592 755.915 202.371 756.213L222.471 756.413ZM202.295 757.228C202.459 757.621 202.825 757.958 203.381 758.243C203.937 758.528 204.627 758.761 205.46 758.944C206.292 759.127 207.225 759.262 208.259 759.347C209.301 759.433 210.389 759.473 211.524 759.468C212.849 759.461 214.004 759.404 214.99 759.297C215.97 759.188 216.834 759.043 217.583 758.857C218.326 758.672 218.98 758.458 219.533 758.214C220.086 757.969 220.578 757.704 221.023 757.418L202.295 757.228ZM250.289 756.693C250.125 756.296 249.724 755.947 249.101 755.648C248.478 755.349 247.679 755.097 246.712 754.894C245.745 754.69 244.615 754.538 243.324 754.439C242.039 754.34 240.62 754.294 239.066 754.302C237.687 754.309 236.491 754.37 235.498 754.487C234.505 754.604 233.641 754.76 232.905 754.957C232.176 755.154 231.549 755.384 231.043 755.646C230.531 755.908 230.052 756.188 229.615 756.487L250.289 756.693Z" fill="#FCB048"/>
<path d="M228.577 748.479C199.806 748.479 169.849 751.011 165.058 755.912C165.245 756.085 165.42 756.269 165.581 756.463C169.62 753.06 194.356 749.634 228.577 749.634C263.676 749.634 288.808 753.239 291.853 756.725C292.002 756.534 292.162 756.351 292.335 756.179C288.378 751.104 257.859 748.479 228.577 748.479Z" fill="url(#paint42_linear_27_51074)"/>
<path d="M179.521 740.958V755.27C179.521 759.894 208.41 763.643 244.046 763.643C279.682 763.643 308.571 759.894 308.571 755.27V740.958H179.521Z" fill="url(#paint43_linear_27_51074)"/>
<path d="M244.046 749.331C279.683 749.331 308.572 745.582 308.572 740.957C308.572 736.333 279.683 732.584 244.046 732.584C208.41 732.584 179.521 736.333 179.521 740.957C179.521 745.582 208.41 749.331 244.046 749.331Z" fill="url(#paint44_linear_27_51074)"/>
<path d="M244.046 749.908C212.485 749.908 179.483 746.894 179.483 741.079C179.483 740.76 179.597 740.199 179.916 740.199C180.235 740.199 180.098 740.638 180.098 740.957C180.098 744.645 206.36 748.753 244.046 748.753C281.731 748.753 307.993 744.645 307.993 740.957C307.993 740.638 308.048 740.339 308.367 740.339C308.686 740.339 308.609 740.765 308.609 741.084C308.609 746.899 275.606 749.908 244.046 749.908Z" fill="url(#paint45_linear_27_51074)"/>
<path d="M237.949 741.424C238.582 740.986 239.255 740.554 239.976 740.127C240.691 739.701 241.621 739.315 242.748 738.971C243.882 738.627 245.3 738.347 247.002 738.13C248.704 737.913 250.832 737.798 253.373 737.786C255.867 737.774 258.206 737.853 260.396 738.024C262.58 738.194 264.508 738.449 266.171 738.789C267.829 739.128 269.183 739.548 270.226 740.047C271.262 740.547 271.88 741.119 272.079 741.764L279.344 741.838C279.872 741.841 280.338 741.884 280.737 741.966C281.143 742.049 281.34 742.154 281.34 742.281L281.343 742.879L272.003 742.789C271.675 743.522 270.84 744.192 269.498 744.8C268.163 745.408 266.456 745.934 264.377 746.38L260.975 745.907C260.671 745.86 260.42 745.801 260.224 745.729C260.028 745.658 259.933 745.58 259.932 745.495C259.932 745.38 260.195 745.249 260.721 745.102C261.247 744.954 261.841 744.771 262.502 744.553C263.164 744.336 263.811 744.079 264.451 743.782C265.085 743.486 265.509 743.133 265.73 742.72L243.684 742.502C243.105 742.928 242.452 743.347 241.737 743.758C241.016 744.17 240.065 744.54 238.877 744.869C237.69 745.198 236.211 745.465 234.441 745.67C232.665 745.876 230.442 745.985 227.752 745.998C225.731 746.008 223.764 745.931 221.837 745.769C219.911 745.606 218.199 745.362 216.704 745.037C215.209 744.712 213.984 744.31 213.022 743.832C212.067 743.352 211.53 742.802 211.419 742.18L205.437 742.119C204.91 742.116 204.444 742.075 204.024 741.995C203.612 741.915 203.401 741.809 203.401 741.676L203.398 741.078L211.576 741.156C211.938 740.526 212.679 739.976 213.812 739.509C214.944 739.041 216.328 738.624 217.962 738.26L220.701 738.636C221.532 738.753 221.945 738.89 221.946 739.047C221.946 739.132 221.778 739.237 221.434 739.362C221.083 739.488 220.678 739.638 220.206 739.812C219.741 739.987 219.282 740.192 218.844 740.427C218.399 740.661 218.069 740.927 217.848 741.225L237.949 741.424ZM217.772 742.239C217.937 742.632 218.303 742.969 218.859 743.254C219.414 743.539 220.105 743.772 220.937 743.955C221.769 744.138 222.703 744.273 223.737 744.358C224.778 744.444 225.866 744.484 227.002 744.479C228.326 744.472 229.482 744.415 230.468 744.307C231.447 744.199 232.311 744.053 233.061 743.868C233.804 743.683 234.458 743.469 235.011 743.225C235.564 742.98 236.056 742.715 236.5 742.429L217.772 742.239ZM265.767 741.704C265.603 741.307 265.202 740.958 264.579 740.659C263.956 740.36 263.157 740.108 262.19 739.905C261.222 739.701 260.093 739.549 258.801 739.45C257.517 739.351 256.097 739.305 254.543 739.312C253.164 739.319 251.969 739.381 250.976 739.498C249.983 739.615 249.119 739.771 248.383 739.968C247.654 740.165 247.026 740.395 246.521 740.657C246.009 740.919 245.53 741.2 245.092 741.498L265.767 741.704Z" fill="#FCB048"/>
<path d="M244.055 733.49C215.284 733.49 185.327 736.022 180.535 740.923C180.723 741.096 180.897 741.28 181.059 741.474C185.098 738.072 209.834 734.646 244.054 734.646C279.154 734.646 304.286 738.25 307.33 741.737C307.48 741.545 307.64 741.362 307.813 741.19C303.855 736.115 273.336 733.49 244.055 733.49Z" fill="url(#paint46_linear_27_51074)"/>
<path d="M171.47 725.924V740.236C171.47 744.861 200.359 748.61 235.995 748.61C271.632 748.61 300.521 744.861 300.521 740.236V725.924H171.47Z" fill="url(#paint47_linear_27_51074)"/>
<path d="M235.996 734.298C271.632 734.298 300.521 730.549 300.521 725.924C300.521 721.3 271.632 717.551 235.996 717.551C200.359 717.551 171.47 721.3 171.47 725.924C171.47 730.549 200.359 734.298 235.996 734.298Z" fill="url(#paint48_linear_27_51074)"/>
<path d="M235.995 734.875C204.435 734.875 171.433 731.861 171.433 726.046C171.433 725.727 171.547 725.166 171.866 725.166C172.185 725.166 172.048 725.605 172.048 725.924C172.048 729.612 198.31 733.72 235.995 733.72C273.68 733.72 299.943 729.612 299.943 725.924C299.943 725.605 299.997 725.306 300.316 725.306C300.636 725.306 300.559 725.732 300.559 726.051C300.559 731.865 267.556 734.875 235.995 734.875Z" fill="url(#paint49_linear_27_51074)"/>
<path d="M229.898 726.391C230.531 725.952 231.205 725.52 231.926 725.094C232.64 724.667 233.571 724.282 234.698 723.938C235.832 723.594 237.25 723.314 238.952 723.097C240.654 722.88 242.782 722.765 245.323 722.753C247.816 722.74 250.155 722.82 252.346 722.99C254.529 723.16 256.457 723.416 258.121 723.755C259.778 724.094 261.132 724.514 262.176 725.013C263.212 725.513 263.83 726.085 264.029 726.731L271.294 726.804C271.821 726.807 272.288 726.85 272.687 726.933C273.093 727.016 273.289 727.12 273.29 727.247L273.293 727.845L263.952 727.756C263.625 728.488 262.79 729.158 261.448 729.766C260.113 730.375 258.406 730.901 256.326 731.346L252.925 730.873C252.62 730.827 252.37 730.768 252.173 730.696C251.977 730.624 251.882 730.546 251.882 730.462C251.881 730.347 252.144 730.216 252.67 730.069C253.197 729.921 253.791 729.738 254.452 729.52C255.113 729.303 255.76 729.046 256.401 728.749C257.035 728.453 257.459 728.099 257.68 727.687L235.634 727.468C235.054 727.894 234.401 728.313 233.687 728.725C232.965 729.136 232.015 729.507 230.826 729.836C229.639 730.164 228.16 730.431 226.39 730.637C224.614 730.842 222.391 730.951 219.701 730.964C217.681 730.974 215.713 730.898 213.787 730.735C211.86 730.572 210.149 730.328 208.654 730.003C207.158 729.678 205.933 729.276 204.971 728.798C204.016 728.319 203.479 727.769 203.368 727.147L197.387 727.085C196.86 727.082 196.393 727.041 195.974 726.961C195.561 726.881 195.351 726.775 195.35 726.642L195.347 726.044L203.525 726.122C203.887 725.492 204.628 724.942 205.761 724.475C206.894 724.007 208.277 723.591 209.911 723.226L212.65 723.602C213.482 723.719 213.895 723.856 213.896 724.013C213.896 724.098 213.728 724.203 213.383 724.328C213.033 724.454 212.628 724.604 212.156 724.778C211.69 724.953 211.232 725.157 210.794 725.393C210.349 725.627 210.019 725.893 209.797 726.191L229.898 726.391ZM209.722 727.206C209.886 727.599 210.253 727.936 210.808 728.22C211.364 728.505 212.054 728.738 212.886 728.922C213.719 729.105 214.652 729.239 215.686 729.325C216.728 729.41 217.816 729.451 218.951 729.445C220.275 729.439 221.431 729.381 222.417 729.274C223.396 729.166 224.261 729.02 225.01 728.835C225.753 728.65 226.407 728.436 226.96 728.191C227.513 727.946 228.005 727.681 228.45 727.395L209.722 727.206ZM257.716 726.671C257.552 726.274 257.152 725.925 256.528 725.626C255.905 725.327 255.107 725.075 254.139 724.872C253.172 724.668 252.042 724.516 250.751 724.417C249.466 724.318 248.047 724.272 246.493 724.279C245.114 724.286 243.918 724.348 242.925 724.464C241.932 724.581 241.068 724.738 240.332 724.935C239.603 725.132 238.976 725.362 238.47 725.624C237.958 725.886 237.48 726.166 237.042 726.465L257.716 726.671Z" fill="#FCB048"/>
<path d="M236.004 718.457C207.233 718.457 177.277 720.989 172.485 725.89C172.672 726.063 172.847 726.247 173.008 726.441C177.047 723.038 201.783 719.613 236.004 719.613C271.103 719.613 296.235 723.217 299.28 726.704C299.429 726.512 299.589 726.329 299.762 726.157C295.805 721.082 265.286 718.457 236.004 718.457Z" fill="url(#paint50_linear_27_51074)"/>
<path d="M318.875 736.014L307.212 744.31C303.444 746.99 317.133 772.704 337.789 801.743C358.445 830.783 378.245 852.151 382.013 849.47L393.676 841.175L318.875 736.014Z" fill="url(#paint51_linear_27_51074)"/>
<path d="M393.676 841.175C389.908 843.855 370.108 822.487 349.452 793.448C328.796 764.408 315.106 738.695 318.875 736.014C322.643 733.333 342.443 754.701 363.099 783.741C383.755 812.78 397.444 838.494 393.676 841.175Z" fill="url(#paint52_linear_27_51074)"/>
<path d="M348.981 793.782C330.688 768.064 314.016 739.424 318.754 736.054C319.014 735.869 319.537 735.636 319.722 735.897C319.907 736.157 319.47 736.3 319.21 736.485C316.205 738.622 328.08 762.404 349.923 793.113C371.766 823.822 390.336 842.841 393.341 840.704C393.602 840.519 393.877 840.39 394.062 840.65C394.247 840.91 393.855 841.094 393.595 841.279C388.857 844.65 367.275 819.5 348.981 793.782Z" fill="url(#paint53_linear_27_51074)"/>
<path d="M352.361 783.896C353.085 784.158 353.827 784.457 354.593 784.797C355.354 785.132 356.208 785.667 357.141 786.386C358.079 787.11 359.129 788.103 360.292 789.364C361.456 790.625 362.782 792.293 364.265 794.357C365.721 796.382 367.012 798.334 368.143 800.218C369.27 802.096 370.179 803.814 370.867 805.367C371.551 806.914 371.994 808.261 372.192 809.4C372.385 810.534 372.277 811.369 371.867 811.906L376.018 817.869C376.321 818.301 376.557 818.705 376.72 819.079C376.888 819.458 376.917 819.678 376.814 819.752L376.328 820.101L370.987 812.438C370.2 812.596 369.17 812.304 367.897 811.563C366.627 810.828 365.209 809.741 363.641 808.305L362.054 805.259C361.916 804.984 361.819 804.746 361.764 804.544C361.708 804.342 361.717 804.22 361.785 804.171C361.879 804.103 362.138 804.242 362.563 804.586C362.989 804.929 363.482 805.307 364.043 805.719C364.603 806.132 365.188 806.511 365.801 806.861C366.41 807.206 366.944 807.346 367.408 807.288L354.807 789.196C354.124 788.971 353.404 788.681 352.655 788.337C351.902 787.988 351.048 787.428 350.092 786.651C349.135 785.874 348.061 784.823 346.868 783.5C345.671 782.171 344.294 780.423 342.724 778.239C341.544 776.598 340.467 774.951 339.482 773.287C338.498 771.622 337.705 770.086 337.103 768.68C336.502 767.273 336.119 766.041 335.951 764.98C335.788 763.924 335.925 763.168 336.367 762.717L332.951 757.807C332.648 757.375 332.411 756.971 332.233 756.584C332.058 756.201 332.023 755.968 332.131 755.891L332.617 755.542L337.293 762.251C338.017 762.18 338.894 762.465 339.932 763.118C340.97 763.77 342.111 764.656 343.355 765.776L344.636 768.226C345.023 768.972 345.151 769.387 345.023 769.479C344.954 769.528 344.771 769.452 344.469 769.244C344.164 769.031 343.806 768.788 343.391 768.504C342.979 768.227 342.547 767.971 342.101 767.751C341.652 767.524 341.244 767.409 340.873 767.401L352.361 783.896ZM340.002 767.928C339.777 768.289 339.715 768.783 339.805 769.401C339.895 770.018 340.105 770.716 340.438 771.501C340.771 772.285 341.203 773.123 341.733 774.016C342.267 774.914 342.864 775.824 343.527 776.746C344.3 777.822 345.016 778.73 345.676 779.471C346.331 780.207 346.951 780.827 347.536 781.33C348.118 781.828 348.671 782.237 349.191 782.546C349.711 782.855 350.212 783.102 350.703 783.298L340.002 767.928ZM368.257 806.727C368.486 806.363 368.537 805.835 368.42 805.153C368.302 804.472 368.045 803.675 367.649 802.769C367.255 801.862 366.724 800.854 366.056 799.745C365.392 798.64 364.607 797.457 363.7 796.195C362.896 795.075 362.152 794.137 361.482 793.395C360.811 792.653 360.183 792.04 359.595 791.555C359.012 791.075 358.462 790.696 357.955 790.437C357.444 790.171 356.938 789.944 356.441 789.76L368.257 806.727Z" fill="#FCB048"/>
<path d="M362.365 784.273C345.689 760.828 326.262 737.885 319.491 736.821C319.459 737.074 319.41 737.323 319.346 737.567C324.459 738.886 341.589 757.057 361.424 784.943C381.769 813.544 393.399 836.113 392.322 840.615C392.565 840.626 392.807 840.651 393.047 840.692C394.888 834.526 379.338 808.134 362.365 784.273Z" fill="url(#paint54_linear_27_51074)"/>
<path d="M696.185 812.505L690.346 812.964C688.829 813.084 687.311 813.024 685.814 812.774L662.656 809.001L662.277 808.941L635.365 804.549L635.198 804.539L614.109 801.125V682.469L635.325 682.456H635.365L662.276 683.795L662.675 683.996L695.226 685.249L696.185 812.505Z" fill="url(#paint55_linear_27_51074)"/>
<path d="M778.076 690.023V800.772C778.076 804.734 775.032 807.972 771.095 808.206L693.857 812.8C690.733 812.986 688.067 810.392 688.067 807.171V691.79C688.067 688.567 690.594 685.895 693.73 685.807L771.525 683.639C775.133 683.539 778.076 686.403 778.076 690.023Z" fill="url(#paint56_linear_27_51074)"/>
<path d="M614.275 682.471L688.067 685.965L771.524 683.639L685.961 680.852L614.275 682.471Z" fill="url(#paint57_linear_27_51074)"/>
<path opacity="0.3" d="M771.414 683.643L710.488 685.34C707.022 685.437 704.193 688.36 704.197 691.901C704.203 697.811 705.189 703.919 707.79 709.811C716.463 729.456 735.85 730.182 739.884 748.213C743.245 763.238 731.344 769.702 730.086 788.9C729.755 793.944 730.192 799.369 731.693 805.186C732.483 808.248 735.33 810.333 738.433 810.149L771.975 808.154C775.416 807.949 778.076 805.12 778.076 801.658V690.133C778.076 686.453 775.083 683.54 771.414 683.643Z" fill="url(#paint58_linear_27_51074)"/>
<path d="M715.14 811.534L743.777 809.831V684.413L715.14 685.211V811.534Z" fill="url(#paint59_linear_27_51074)"/>
<path d="M716.429 811.457L743.777 809.831V684.413L716.429 685.175V811.457Z" fill="url(#paint60_linear_27_51074)"/>
<path d="M661.892 684.176V809.001L635.658 804.549V683.467L644.013 683.308L661.892 684.176Z" fill="url(#paint61_linear_27_51074)"/>
<path d="M664.582 681.335L744.412 685.874H715.711L645.917 681.756L664.582 681.335Z" fill="url(#paint62_linear_27_51074)"/>
<path d="M703.427 677.503C705.286 666.115 706.644 657.792 714.081 650.107C717.217 646.866 720.641 643.327 726.257 642.388C732.715 641.308 740.958 643.854 743.216 649.128C745.36 654.136 740.309 657.4 742.455 663.152C744.612 668.934 750.898 668.81 751.587 673.48C752.17 677.435 748.31 681.922 744.412 684.025C737.681 687.657 733.859 682.548 720.712 683.373C711.653 683.942 706.424 686.81 703.97 683.917C702.802 682.539 702.917 680.626 703.427 677.503Z" fill="url(#paint63_linear_27_51074)"/>
<g opacity="0.3">
<path d="M739.411 673.045C731.294 669.941 727.134 663.185 723.539 664.783C720.344 666.203 722.293 672.133 718.538 676.959C715.108 681.366 708.819 682.414 703.23 682.419C703.371 682.983 703.601 683.481 703.97 683.917C706.423 686.81 711.653 683.942 720.712 683.373C733.859 682.548 737.68 687.657 744.411 684.025C747.987 682.096 751.522 678.16 751.632 674.469C747.839 674.877 743.62 674.655 739.411 673.045Z" fill="url(#paint64_linear_27_51074)"/>
</g>
<path d="M654.397 649.346C659.857 645.037 665.613 649.842 672.335 645.106C679.143 640.309 677.165 632.612 682.445 630.43C688.579 627.894 697.666 635.631 702.014 640.54C713.058 653.011 718.244 675.15 709.515 682.939C706.239 685.862 696.961 684.657 678.54 682.128C657.485 679.238 654.455 677.168 652.44 674.459C647.01 667.157 648.216 654.224 654.397 649.346Z" fill="url(#paint65_linear_27_51074)"/>
<g opacity="0.3">
<path d="M688.968 658.695C685.933 657.738 684.551 661.211 678.314 662.609C677.169 662.865 666.17 665.163 660.267 658.26C657.925 655.521 656.826 651.838 656.954 647.932C656.093 648.232 655.241 648.679 654.396 649.346C648.215 654.224 647.009 667.157 652.44 674.458C654.455 677.168 657.485 679.238 678.54 682.128C696.961 684.656 706.238 685.861 709.514 682.938C709.955 682.545 710.35 682.107 710.721 681.644C706.301 681.498 701.664 680.428 698.317 677.176C691.858 670.902 694.126 660.322 688.968 658.695Z" fill="url(#paint66_linear_27_51074)"/>
</g>
<path d="M690.276 683.687L662.276 684.745L635.325 683.467L644.039 683.308L682.191 682.629L690.276 683.687Z" fill="url(#paint67_linear_27_51074)"/>
</g>
<defs>
<linearGradient id="paint0_linear_27_51074" x1="605.112" y1="238.146" x2="740.854" y2="670.052" gradientUnits="userSpaceOnUse">
<stop stop-color="#FF9085"/>
<stop offset="1" stop-color="#FB6FBB"/>
</linearGradient>
<linearGradient id="paint1_linear_27_51074" x1="850.407" y1="299.591" x2="1029.17" y2="-24.2363" gradientUnits="userSpaceOnUse">
<stop offset="0.0036" stop-color="#E38DDD"/>
<stop offset="1" stop-color="#9571F6"/>
</linearGradient>
<linearGradient id="paint2_linear_27_51074" x1="842.385" y1="509.688" x2="540.539" y2="794.708" gradientUnits="userSpaceOnUse">
<stop stop-color="#AA80F9"/>
<stop offset="0.9964" stop-color="#6165D7"/>
</linearGradient>
<linearGradient id="paint3_linear_27_51074" x1="1356.29" y1="2991.8" x2="1666.29" y2="3665.02" gradientUnits="userSpaceOnUse">
<stop offset="0.0036" stop-color="#E38DDD"/>
<stop offset="1" stop-color="#9571F6"/>
</linearGradient>
<linearGradient id="paint4_linear_27_51074" x1="148.908" y1="587.778" x2="450.754" y2="872.797" gradientUnits="userSpaceOnUse">
<stop stop-color="#FF9085"/>
<stop offset="1" stop-color="#FB6FBB"/>
</linearGradient>
<linearGradient id="paint5_linear_27_51074" x1="228.817" y1="253.37" x2="420.345" y2="245.042" gradientUnits="userSpaceOnUse">
<stop stop-color="#AB316D"/>
<stop offset="1" stop-color="#792D3D"/>
</linearGradient>
<linearGradient id="paint6_linear_27_51074" x1="208.796" y1="565.27" x2="387.928" y2="565.27" gradientUnits="userSpaceOnUse">
<stop stop-color="#FFC444"/>
<stop offset="0.9964" stop-color="#F36F56"/>
</linearGradient>
<linearGradient id="paint7_linear_27_51074" x1="257.157" y1="565.27" x2="387.928" y2="565.27" gradientUnits="userSpaceOnUse">
<stop stop-color="#FFC444"/>
<stop offset="0.9964" stop-color="#F36F56"/>
</linearGradient>
<linearGradient id="paint8_linear_27_51074" x1="476.649" y1="534.983" x2="789.467" y2="1062.03" gradientUnits="userSpaceOnUse">
<stop stop-color="#FFC444"/>
<stop offset="0.9964" stop-color="#F36F56"/>
</linearGradient>
<linearGradient id="paint9_linear_27_51074" x1="475.738" y1="488.208" x2="728.981" y2="1082.95" gradientUnits="userSpaceOnUse">
<stop stop-color="#FFC444"/>
<stop offset="0.9964" stop-color="#F36F56"/>
</linearGradient>
<linearGradient id="paint10_linear_27_51074" x1="522.456" y1="79.7849" x2="439.186" y2="790.552" gradientUnits="userSpaceOnUse">
<stop stop-color="#AB316D"/>
<stop offset="1" stop-color="#792D3D"/>
</linearGradient>
<linearGradient id="paint11_linear_27_51074" x1="566.287" y1="51.9657" x2="325.359" y2="510.316" gradientUnits="userSpaceOnUse">
<stop stop-color="#AB316D"/>
<stop offset="1" stop-color="#792D3D"/>
</linearGradient>
<linearGradient id="paint12_linear_27_51074" x1="718.098" y1="137.824" x2="477.171" y2="596.172" gradientUnits="userSpaceOnUse">
<stop stop-color="#AB316D"/>
<stop offset="1" stop-color="#792D3D"/>
</linearGradient>
<linearGradient id="paint13_linear_27_51074" x1="129.139" y1="684.988" x2="184.049" y2="693.813" gradientUnits="userSpaceOnUse">
<stop stop-color="#AA80F9"/>
<stop offset="0.9964" stop-color="#6165D7"/>
</linearGradient>
<linearGradient id="paint14_linear_27_51074" x1="334.595" y1="683.596" x2="562.083" y2="955.209" gradientUnits="userSpaceOnUse">
<stop stop-color="#AA80F9"/>
<stop offset="0.9964" stop-color="#6165D7"/>
</linearGradient>
<linearGradient id="paint15_linear_27_51074" x1="276.687" y1="759.298" x2="574.775" y2="853.431" gradientUnits="userSpaceOnUse">
<stop stop-color="#444B8C"/>
<stop offset="0.9964" stop-color="#26264F"/>
</linearGradient>
<linearGradient id="paint16_linear_27_51074" x1="223.769" y1="691.704" x2="374.749" y2="693.984" gradientUnits="userSpaceOnUse">
<stop stop-color="#FF9085"/>
<stop offset="1" stop-color="#FB6FBB"/>
</linearGradient>
<linearGradient id="paint17_linear_27_51074" x1="326.704" y1="551.625" x2="554.192" y2="823.238" gradientUnits="userSpaceOnUse">
<stop stop-color="#AA80F9"/>
<stop offset="0.9964" stop-color="#6165D7"/>
</linearGradient>
<linearGradient id="paint18_linear_27_51074" x1="394.265" y1="765.309" x2="542.575" y2="765.309" gradientUnits="userSpaceOnUse">
<stop stop-color="#AA80F9"/>
<stop offset="0.9964" stop-color="#6165D7"/>
</linearGradient>
<linearGradient id="paint19_linear_27_51074" x1="170.948" y1="843.596" x2="319.413" y2="843.596" gradientUnits="userSpaceOnUse">
<stop stop-color="#FCB148"/>
<stop offset="0.0521" stop-color="#FDBA46"/>
<stop offset="0.1424" stop-color="#FFC244"/>
<stop offset="0.3183" stop-color="#FFC444"/>
<stop offset="0.4849" stop-color="#FDB946"/>
<stop offset="0.7754" stop-color="#F99C4D"/>
<stop offset="0.8658" stop-color="#F8924F"/>
<stop offset="1" stop-color="#F8924F"/>
</linearGradient>
<linearGradient id="paint20_linear_27_51074" x1="245.863" y1="826.872" x2="253.69" y2="892.395" gradientUnits="userSpaceOnUse">
<stop stop-color="#FFDB44"/>
<stop offset="1" stop-color="#FEEF06"/>
</linearGradient>
<linearGradient id="paint21_linear_27_51074" x1="245.523" y1="823.95" x2="247.926" y2="844.073" gradientUnits="userSpaceOnUse">
<stop stop-color="#FFDB44"/>
<stop offset="1" stop-color="#FEEF06"/>
</linearGradient>
<linearGradient id="paint22_linear_27_51074" x1="247.782" y1="841.963" x2="245.387" y2="821.912" gradientUnits="userSpaceOnUse">
<stop offset="0.0036" stop-color="#F36F56"/>
<stop offset="0.3059" stop-color="#F99C4C"/>
<stop offset="0.545" stop-color="#FDB946"/>
<stop offset="0.6817" stop-color="#FFC444"/>
<stop offset="0.8038" stop-color="#FFC244"/>
<stop offset="0.8667" stop-color="#FEBA46"/>
<stop offset="0.916" stop-color="#FCAD49"/>
<stop offset="0.958" stop-color="#F99A4D"/>
<stop offset="0.9955" stop-color="#F58152"/>
<stop offset="1" stop-color="#F57E53"/>
</linearGradient>
<linearGradient id="paint23_linear_27_51074" x1="153.011" y1="828.563" x2="301.476" y2="828.563" gradientUnits="userSpaceOnUse">
<stop stop-color="#FCB148"/>
<stop offset="0.0521" stop-color="#FDBA46"/>
<stop offset="0.1424" stop-color="#FFC244"/>
<stop offset="0.3183" stop-color="#FFC444"/>
<stop offset="0.4849" stop-color="#FDB946"/>
<stop offset="0.7754" stop-color="#F99C4D"/>
<stop offset="0.8658" stop-color="#F8924F"/>
<stop offset="1" stop-color="#F8924F"/>
</linearGradient>
<linearGradient id="paint24_linear_27_51074" x1="227.926" y1="811.839" x2="235.752" y2="877.362" gradientUnits="userSpaceOnUse">
<stop stop-color="#FFDB44"/>
<stop offset="1" stop-color="#FEEF06"/>
</linearGradient>
<linearGradient id="paint25_linear_27_51074" x1="227.585" y1="808.917" x2="229.989" y2="829.04" gradientUnits="userSpaceOnUse">
<stop stop-color="#FFDB44"/>
<stop offset="1" stop-color="#FEEF06"/>
</linearGradient>
<linearGradient id="paint26_linear_27_51074" x1="229.845" y1="826.93" x2="227.449" y2="806.879" gradientUnits="userSpaceOnUse">
<stop offset="0.0036" stop-color="#F36F56"/>
<stop offset="0.3059" stop-color="#F99C4C"/>
<stop offset="0.545" stop-color="#FDB946"/>
<stop offset="0.6817" stop-color="#FFC444"/>
<stop offset="0.8038" stop-color="#FFC244"/>
<stop offset="0.8667" stop-color="#FEBA46"/>
<stop offset="0.916" stop-color="#FCAD49"/>
<stop offset="0.958" stop-color="#F99A4D"/>
<stop offset="0.9955" stop-color="#F58152"/>
<stop offset="1" stop-color="#F57E53"/>
</linearGradient>
<linearGradient id="paint27_linear_27_51074" x1="168.488" y1="813.574" x2="316.953" y2="813.574" gradientUnits="userSpaceOnUse">
<stop stop-color="#FCB148"/>
<stop offset="0.0521" stop-color="#FDBA46"/>
<stop offset="0.1424" stop-color="#FFC244"/>
<stop offset="0.3183" stop-color="#FFC444"/>
<stop offset="0.4849" stop-color="#FDB946"/>
<stop offset="0.7754" stop-color="#F99C4D"/>
<stop offset="0.8658" stop-color="#F8924F"/>
<stop offset="1" stop-color="#F8924F"/>
</linearGradient>
<linearGradient id="paint28_linear_27_51074" x1="243.403" y1="796.85" x2="251.23" y2="862.373" gradientUnits="userSpaceOnUse">
<stop stop-color="#FFDB44"/>
<stop offset="1" stop-color="#FEEF06"/>
</linearGradient>
<linearGradient id="paint29_linear_27_51074" x1="243.063" y1="793.928" x2="245.467" y2="814.051" gradientUnits="userSpaceOnUse">
<stop stop-color="#FFDB44"/>
<stop offset="1" stop-color="#FEEF06"/>
</linearGradient>
<linearGradient id="paint30_linear_27_51074" x1="245.322" y1="811.941" x2="242.927" y2="791.89" gradientUnits="userSpaceOnUse">
<stop offset="0.0036" stop-color="#F36F56"/>
<stop offset="0.3059" stop-color="#F99C4C"/>
<stop offset="0.545" stop-color="#FDB946"/>
<stop offset="0.6817" stop-color="#FFC444"/>
<stop offset="0.8038" stop-color="#FFC244"/>
<stop offset="0.8667" stop-color="#FEBA46"/>
<stop offset="0.916" stop-color="#FCAD49"/>
<stop offset="0.958" stop-color="#F99A4D"/>
<stop offset="0.9955" stop-color="#F58152"/>
<stop offset="1" stop-color="#F57E53"/>
</linearGradient>
<linearGradient id="paint31_linear_27_51074" x1="177.881" y1="798.541" x2="326.346" y2="798.541" gradientUnits="userSpaceOnUse">
<stop stop-color="#FCB148"/>
<stop offset="0.0521" stop-color="#FDBA46"/>
<stop offset="0.1424" stop-color="#FFC244"/>
<stop offset="0.3183" stop-color="#FFC444"/>
<stop offset="0.4849" stop-color="#FDB946"/>
<stop offset="0.7754" stop-color="#F99C4D"/>
<stop offset="0.8658" stop-color="#F8924F"/>
<stop offset="1" stop-color="#F8924F"/>
</linearGradient>
<linearGradient id="paint32_linear_27_51074" x1="252.796" y1="781.817" x2="260.623" y2="847.34" gradientUnits="userSpaceOnUse">
<stop stop-color="#FFDB44"/>
<stop offset="1" stop-color="#FEEF06"/>
</linearGradient>
<linearGradient id="paint33_linear_27_51074" x1="252.455" y1="778.895" x2="254.859" y2="799.018" gradientUnits="userSpaceOnUse">
<stop stop-color="#FFDB44"/>
<stop offset="1" stop-color="#FEEF06"/>
</linearGradient>
<linearGradient id="paint34_linear_27_51074" x1="254.715" y1="796.908" x2="252.32" y2="776.857" gradientUnits="userSpaceOnUse">
<stop offset="0.0036" stop-color="#F36F56"/>
<stop offset="0.3059" stop-color="#F99C4C"/>
<stop offset="0.545" stop-color="#FDB946"/>
<stop offset="0.6817" stop-color="#FFC444"/>
<stop offset="0.8038" stop-color="#FFC244"/>
<stop offset="0.8667" stop-color="#FEBA46"/>
<stop offset="0.916" stop-color="#FCAD49"/>
<stop offset="0.958" stop-color="#F99A4D"/>
<stop offset="0.9955" stop-color="#F58152"/>
<stop offset="1" stop-color="#F57E53"/>
</linearGradient>
<linearGradient id="paint35_linear_27_51074" x1="170.948" y1="782.322" x2="319.413" y2="782.322" gradientUnits="userSpaceOnUse">
<stop stop-color="#FCB148"/>
<stop offset="0.0521" stop-color="#FDBA46"/>
<stop offset="0.1424" stop-color="#FFC244"/>
<stop offset="0.3183" stop-color="#FFC444"/>
<stop offset="0.4849" stop-color="#FDB946"/>
<stop offset="0.7754" stop-color="#F99C4D"/>
<stop offset="0.8658" stop-color="#F8924F"/>
<stop offset="1" stop-color="#F8924F"/>
</linearGradient>
<linearGradient id="paint36_linear_27_51074" x1="245.863" y1="765.598" x2="253.69" y2="831.121" gradientUnits="userSpaceOnUse">
<stop stop-color="#FFDB44"/>
<stop offset="1" stop-color="#FEEF06"/>
</linearGradient>
<linearGradient id="paint37_linear_27_51074" x1="245.523" y1="762.676" x2="247.926" y2="782.799" gradientUnits="userSpaceOnUse">
<stop stop-color="#FFDB44"/>
<stop offset="1" stop-color="#FEEF06"/>
</linearGradient>
<linearGradient id="paint38_linear_27_51074" x1="247.782" y1="780.69" x2="245.387" y2="760.638" gradientUnits="userSpaceOnUse">
<stop offset="0.0036" stop-color="#F36F56"/>
<stop offset="0.3059" stop-color="#F99C4C"/>
<stop offset="0.545" stop-color="#FDB946"/>
<stop offset="0.6817" stop-color="#FFC444"/>
<stop offset="0.8038" stop-color="#FFC244"/>
<stop offset="0.8667" stop-color="#FEBA46"/>
<stop offset="0.916" stop-color="#FCAD49"/>
<stop offset="0.958" stop-color="#F99A4D"/>
<stop offset="0.9955" stop-color="#F58152"/>
<stop offset="1" stop-color="#F57E53"/>
</linearGradient>
<linearGradient id="paint39_linear_27_51074" x1="153.011" y1="767.289" x2="301.476" y2="767.289" gradientUnits="userSpaceOnUse">
<stop stop-color="#FCB148"/>
<stop offset="0.0521" stop-color="#FDBA46"/>
<stop offset="0.1424" stop-color="#FFC244"/>
<stop offset="0.3183" stop-color="#FFC444"/>
<stop offset="0.4849" stop-color="#FDB946"/>
<stop offset="0.7754" stop-color="#F99C4D"/>
<stop offset="0.8658" stop-color="#F8924F"/>
<stop offset="1" stop-color="#F8924F"/>
</linearGradient>
<linearGradient id="paint40_linear_27_51074" x1="227.926" y1="750.565" x2="235.752" y2="816.088" gradientUnits="userSpaceOnUse">
<stop stop-color="#FFDB44"/>
<stop offset="1" stop-color="#FEEF06"/>
</linearGradient>
<linearGradient id="paint41_linear_27_51074" x1="227.585" y1="747.643" x2="229.989" y2="767.766" gradientUnits="userSpaceOnUse">
<stop stop-color="#FFDB44"/>
<stop offset="1" stop-color="#FEEF06"/>
</linearGradient>
<linearGradient id="paint42_linear_27_51074" x1="229.845" y1="765.656" x2="227.449" y2="745.605" gradientUnits="userSpaceOnUse">
<stop offset="0.0036" stop-color="#F36F56"/>
<stop offset="0.3059" stop-color="#F99C4C"/>
<stop offset="0.545" stop-color="#FDB946"/>
<stop offset="0.6817" stop-color="#FFC444"/>
<stop offset="0.8038" stop-color="#FFC244"/>
<stop offset="0.8667" stop-color="#FEBA46"/>
<stop offset="0.916" stop-color="#FCAD49"/>
<stop offset="0.958" stop-color="#F99A4D"/>
<stop offset="0.9955" stop-color="#F58152"/>
<stop offset="1" stop-color="#F57E53"/>
</linearGradient>
<linearGradient id="paint43_linear_27_51074" x1="168.488" y1="752.3" x2="316.953" y2="752.3" gradientUnits="userSpaceOnUse">
<stop stop-color="#FCB148"/>
<stop offset="0.0521" stop-color="#FDBA46"/>
<stop offset="0.1424" stop-color="#FFC244"/>
<stop offset="0.3183" stop-color="#FFC444"/>
<stop offset="0.4849" stop-color="#FDB946"/>
<stop offset="0.7754" stop-color="#F99C4D"/>
<stop offset="0.8658" stop-color="#F8924F"/>
<stop offset="1" stop-color="#F8924F"/>
</linearGradient>
<linearGradient id="paint44_linear_27_51074" x1="243.403" y1="735.576" x2="251.23" y2="801.099" gradientUnits="userSpaceOnUse">
<stop stop-color="#FFDB44"/>
<stop offset="1" stop-color="#FEEF06"/>
</linearGradient>
<linearGradient id="paint45_linear_27_51074" x1="243.063" y1="732.654" x2="245.467" y2="752.777" gradientUnits="userSpaceOnUse">
<stop stop-color="#FFDB44"/>
<stop offset="1" stop-color="#FEEF06"/>
</linearGradient>
<linearGradient id="paint46_linear_27_51074" x1="245.322" y1="750.667" x2="242.927" y2="730.616" gradientUnits="userSpaceOnUse">
<stop offset="0.0036" stop-color="#F36F56"/>
<stop offset="0.3059" stop-color="#F99C4C"/>
<stop offset="0.545" stop-color="#FDB946"/>
<stop offset="0.6817" stop-color="#FFC444"/>
<stop offset="0.8038" stop-color="#FFC244"/>
<stop offset="0.8667" stop-color="#FEBA46"/>
<stop offset="0.916" stop-color="#FCAD49"/>
<stop offset="0.958" stop-color="#F99A4D"/>
<stop offset="0.9955" stop-color="#F58152"/>
<stop offset="1" stop-color="#F57E53"/>
</linearGradient>
<linearGradient id="paint47_linear_27_51074" x1="160.438" y1="737.267" x2="308.903" y2="737.267" gradientUnits="userSpaceOnUse">
<stop stop-color="#FCB148"/>
<stop offset="0.0521" stop-color="#FDBA46"/>
<stop offset="0.1424" stop-color="#FFC244"/>
<stop offset="0.3183" stop-color="#FFC444"/>
<stop offset="0.4849" stop-color="#FDB946"/>
<stop offset="0.7754" stop-color="#F99C4D"/>
<stop offset="0.8658" stop-color="#F8924F"/>
<stop offset="1" stop-color="#F8924F"/>
</linearGradient>
<linearGradient id="paint48_linear_27_51074" x1="235.353" y1="720.543" x2="243.18" y2="786.066" gradientUnits="userSpaceOnUse">
<stop stop-color="#FFDB44"/>
<stop offset="1" stop-color="#FEEF06"/>
</linearGradient>
<linearGradient id="paint49_linear_27_51074" x1="235.012" y1="717.621" x2="237.416" y2="737.744" gradientUnits="userSpaceOnUse">
<stop stop-color="#FFDB44"/>
<stop offset="1" stop-color="#FEEF06"/>
</linearGradient>
<linearGradient id="paint50_linear_27_51074" x1="237.272" y1="735.634" x2="234.877" y2="715.583" gradientUnits="userSpaceOnUse">
<stop offset="0.0036" stop-color="#F36F56"/>
<stop offset="0.3059" stop-color="#F99C4C"/>
<stop offset="0.545" stop-color="#FDB946"/>
<stop offset="0.6817" stop-color="#FFC444"/>
<stop offset="0.8038" stop-color="#FFC244"/>
<stop offset="0.8667" stop-color="#FEBA46"/>
<stop offset="0.916" stop-color="#FCAD49"/>
<stop offset="0.958" stop-color="#F99A4D"/>
<stop offset="0.9955" stop-color="#F58152"/>
<stop offset="1" stop-color="#F57E53"/>
</linearGradient>
<linearGradient id="paint51_linear_27_51074" x1="303.24" y1="733.596" x2="389.291" y2="854.581" gradientUnits="userSpaceOnUse">
<stop stop-color="#FCB148"/>
<stop offset="0.0521" stop-color="#FDBA46"/>
<stop offset="0.1424" stop-color="#FFC244"/>
<stop offset="0.3183" stop-color="#FFC444"/>
<stop offset="0.4849" stop-color="#FDB946"/>
<stop offset="0.7754" stop-color="#F99C4D"/>
<stop offset="0.8658" stop-color="#F8924F"/>
<stop offset="1" stop-color="#F8924F"/>
</linearGradient>
<linearGradient id="paint52_linear_27_51074" x1="360.288" y1="784.952" x2="311.435" y2="829.302" gradientUnits="userSpaceOnUse">
<stop stop-color="#FFDB44"/>
<stop offset="1" stop-color="#FEEF06"/>
</linearGradient>
<linearGradient id="paint53_linear_27_51074" x1="362.47" y1="782.982" x2="347.468" y2="796.602" gradientUnits="userSpaceOnUse">
<stop stop-color="#FFDB44"/>
<stop offset="1" stop-color="#FEEF06"/>
</linearGradient>
<linearGradient id="paint54_linear_27_51074" x1="349.104" y1="795.261" x2="364.053" y2="781.69" gradientUnits="userSpaceOnUse">
<stop offset="0.0036" stop-color="#F36F56"/>
<stop offset="0.3059" stop-color="#F99C4C"/>
<stop offset="0.545" stop-color="#FDB946"/>
<stop offset="0.6817" stop-color="#FFC444"/>
<stop offset="0.8038" stop-color="#FFC244"/>
<stop offset="0.8667" stop-color="#FEBA46"/>
<stop offset="0.916" stop-color="#FCAD49"/>
<stop offset="0.958" stop-color="#F99A4D"/>
<stop offset="0.9955" stop-color="#F58152"/>
<stop offset="1" stop-color="#F57E53"/>
</linearGradient>
<linearGradient id="paint55_linear_27_51074" x1="583.665" y1="635.875" x2="642.614" y2="724.97" gradientUnits="userSpaceOnUse">
<stop stop-color="#AA80F9"/>
<stop offset="0.9964" stop-color="#6165D7"/>
</linearGradient>
<linearGradient id="paint56_linear_27_51074" x1="767.142" y1="688.939" x2="680.878" y2="834.629" gradientUnits="userSpaceOnUse">
<stop stop-color="#AA80F9"/>
<stop offset="0.9964" stop-color="#6165D7"/>
</linearGradient>
<linearGradient id="paint57_linear_27_51074" x1="704.254" y1="643.046" x2="690.587" y2="691.203" gradientUnits="userSpaceOnUse">
<stop offset="0.0036" stop-color="#E38DDD"/>
<stop offset="1" stop-color="#9571F6"/>
</linearGradient>
<linearGradient id="paint58_linear_27_51074" x1="773.187" y1="692.649" x2="686.152" y2="839.642" gradientUnits="userSpaceOnUse">
<stop offset="0.0036" stop-color="#E38DDD"/>
<stop offset="1" stop-color="#9571F6"/>
</linearGradient>
<linearGradient id="paint59_linear_27_51074" x1="718.647" y1="693.51" x2="753.673" y2="869.961" gradientUnits="userSpaceOnUse">
<stop stop-color="#AB316D"/>
<stop offset="1" stop-color="#792D3D"/>
</linearGradient>
<linearGradient id="paint60_linear_27_51074" x1="723.957" y1="748.412" x2="785.998" y2="739.237" gradientUnits="userSpaceOnUse">
<stop stop-color="#AB316D"/>
<stop offset="1" stop-color="#792D3D"/>
</linearGradient>
<linearGradient id="paint61_linear_27_51074" x1="643.239" y1="747.053" x2="702.455" y2="738.296" gradientUnits="userSpaceOnUse">
<stop stop-color="#AB316D"/>
<stop offset="1" stop-color="#792D3D"/>
</linearGradient>
<linearGradient id="paint62_linear_27_51074" x1="682.258" y1="685.724" x2="813.889" y2="666.257" gradientUnits="userSpaceOnUse">
<stop stop-color="#AB316D"/>
<stop offset="1" stop-color="#792D3D"/>
</linearGradient>
<linearGradient id="paint63_linear_27_51074" x1="748.978" y1="647.088" x2="716.364" y2="681.007" gradientUnits="userSpaceOnUse">
<stop stop-color="#AB316D"/>
<stop offset="1" stop-color="#792D3D"/>
</linearGradient>
<linearGradient id="paint64_linear_27_51074" x1="754.23" y1="652.138" x2="721.616" y2="686.057" gradientUnits="userSpaceOnUse">
<stop stop-color="#AB316D"/>
<stop offset="1" stop-color="#792D3D"/>
</linearGradient>
<linearGradient id="paint65_linear_27_51074" x1="671.916" y1="660.61" x2="758.533" y2="647.8" gradientUnits="userSpaceOnUse">
<stop stop-color="#AB316D"/>
<stop offset="1" stop-color="#792D3D"/>
</linearGradient>
<linearGradient id="paint66_linear_27_51074" x1="672.924" y1="667.423" x2="759.54" y2="654.614" gradientUnits="userSpaceOnUse">
<stop stop-color="#AB316D"/>
<stop offset="1" stop-color="#792D3D"/>
</linearGradient>
<linearGradient id="paint67_linear_27_51074" x1="655.559" y1="684.648" x2="729.41" y2="673.726" gradientUnits="userSpaceOnUse">
<stop stop-color="#AB316D"/>
<stop offset="1" stop-color="#792D3D"/>
</linearGradient>
<clipPath id="clip0_27_51074">
<rect width="967" height="967" fill="white"/>
</clipPath>
</defs>
</svg>
